<?xml version="1.0" standalone="no"?>
<!DOCTYPE svg PUBLIC "-//W3C//DTD SVG 1.1//EN" "http://www.w3.org/Graphics/SVG/1.1/DTD/svg11.dtd" >
<svg xmlns="http://www.w3.org/2000/svg" xmlns:xlink="http://www.w3.org/1999/xlink" version="1.1">
<metadata>
Created by FontForge 20161013 at Mon Aug 15 23:31:31 2005
 By ,,,
Copyright  2005, Joshua Darden &#38; Phil's Fonts, Inc. All rights reserved. Published by Garagefonts USA 301-260-2285 www.garagefonts.com
</metadata>
<defs>
<font id="FreightBigBook" horiz-adv-x="370" >
  <font-face 
    font-family="FreightBigBook"
    font-weight="400"
    font-stretch="normal"
    units-per-em="1000"
    panose-1="2 0 6 3 9 0 0 2 0 4"
    ascent="800"
    descent="-200"
    x-height="422"
    cap-height="625"
    bbox="-85 -279 987 854"
    underline-thickness="20"
    underline-position="-153"
    unicode-range="U+0020-FB02"
  />
<missing-glyph horiz-adv-x="500" 
 />
    <glyph glyph-name=".notdef" horiz-adv-x="500" 
 />
    <glyph glyph-name=".null" horiz-adv-x="0" 
 />
    <glyph glyph-name=".null" horiz-adv-x="0" 
 />
    <glyph glyph-name="nonmarkingreturn" horiz-adv-x="333" 
 />
    <glyph glyph-name="space" unicode=" " horiz-adv-x="130" 
 />
    <glyph glyph-name="exclam" unicode="!" horiz-adv-x="235" 
d="M76 583q-1 10 -1 20t4 18.5t13 13.5t26 5h2q17 0 26 -5t12.5 -13.5t3.5 -18.5t-1 -20l-37 -406q0 -3 -4 -3t-4 3zM119 -15q-23 0 -38.5 16t-15.5 36t15.5 34.5t38.5 14.5t37 -14.5t14 -34.5t-14 -36t-37 -16z" />
    <glyph glyph-name="quotedbl" unicode="&#x22;" horiz-adv-x="298" 
d="M258 646h1l45 -21l-160 -222h-3zM131 639l-14 7l29 -14l-145 -229h-3z" />
    <glyph glyph-name="numbersign" unicode="#" horiz-adv-x="494" 
d="M300 201l58 221h-163l-58 -221h163zM124 193h-139v8h141l58 221h-139v8h141l53 202h11l-53 -202h163l53 202h11l-53 -202h138v-8h-140l-58 -221h138v-8h-140l-52 -198h-11l52 198h-163l-52 -198h-11z" />
    <glyph glyph-name="dollar" unicode="$" horiz-adv-x="445" 
d="M136 -8q-29 5 -57 11.5t-51 14.5l-10 145h7l40 -84q29 -47 76 -68l74 282l-9 3q-33 11 -62 25t-51 34.5t-34.5 47.5t-12.5 63q0 33 13 64t37.5 55t59.5 38.5t78 14.5q20 0 37 -2t33 -6l29 110h10l-29 -112q12 -3 22.5 -6.5t20.5 -7.5l40 13l9 -152h-6l-66 118q-6 5 -12 9
t-13 8l-63 -239q38 -13 72 -29.5t60 -39t41 -53t15 -72.5q0 -37 -16 -71.5t-45.5 -61t-69.5 -42.5t-88 -16q-16 0 -33.5 1.5t-35.5 3.5l-41 -155h-10l41 156v0zM300 614q-14 7 -30.5 11t-36.5 4q-28 0 -51 -9.5t-40 -26t-26.5 -38.5t-9.5 -47q0 -27 9.5 -47.5t27 -36
t41.5 -27.5t52 -23l64 240v0zM150 7q15 -5 31.5 -7.5t34.5 -2.5q32 0 59.5 10t48 28.5t32 45t11.5 58.5q0 59 -38 93t-105 58l-3 -12l-8 -32t-12 -45t-14 -52q-17 -62 -37 -142z" />
    <glyph glyph-name="percent" unicode="%" horiz-adv-x="529" 
d="M132 396q52 0 82.5 33.5t30.5 82.5q0 24 -8 45.5t-22.5 37.5t-35.5 25.5t-47 9.5t-46.5 -9.5t-35 -25.5t-22.5 -37.5t-8 -45.5q0 -49 30 -82.5t82 -33.5zM132 386q-29 0 -52 10t-39 27.5t-24.5 40.5t-8.5 48q0 26 8.5 49t24.5 40.5t39 28t52 10.5t52.5 -10.5t39.5 -28
t24.5 -40.5t8.5 -49q0 -25 -8.5 -48t-24.5 -40.5t-39.5 -27.5t-52.5 -10zM396 -3q52 0 82.5 33.5t30.5 82.5q0 24 -8 45.5t-22.5 37.5t-35.5 25.5t-47 9.5t-46.5 -9.5t-35 -25.5t-22.5 -37.5t-8 -45.5q0 -49 30 -82.5t82 -33.5zM396 -13q-29 0 -52 10t-39 27.5t-24.5 40
t-8.5 47.5q0 26 8.5 49.5t24.5 41t39 28t52 10.5t52.5 -10.5t39.5 -28t24.5 -41t8.5 -49.5q0 -25 -8.5 -47.5t-24.5 -40t-39.5 -27.5t-52.5 -10zM471 640h12l-428 -654h-12z" />
    <glyph glyph-name="ampersand" unicode="&#x26;" horiz-adv-x="700" 
d="M274 415q42 21 55.5 50t13.5 64q0 18 -6 36t-17.5 33t-27.5 24.5t-37 9.5q-19 0 -35 -8t-27.5 -21.5t-18 -31t-6.5 -37.5q0 -42 25 -68t81 -51zM234 45q54 0 95.5 29t88.5 80q-35 74 -91 134.5t-124 89.5q-66 -35 -93.5 -81t-27.5 -96q0 -34 11 -62.5t31.5 -49.5
t48.5 -32.5t61 -11.5zM190 -14q-42 0 -76 14.5t-57.5 39t-36.5 56.5t-13 68q0 73 49.5 131t137.5 87q-43 23 -67.5 53t-24.5 68q0 24 13 48.5t34.5 44.5t49 32.5t57.5 12.5q38 0 66.5 -10t47 -26t28 -35.5t9.5 -37.5q0 -35 -29 -67t-94 -53q26 -14 53.5 -36t52.5 -48.5
t46.5 -55.5t36.5 -56q51 65 75 102.5t24 56.5q0 14 -18.5 24.5t-68.5 15.5l-11 1l-3 6h242l-3 -6l-12 -1q-21 -2 -36.5 -7t-29 -15t-27.5 -26t-33 -40l-94 -120q25 -49 43.5 -82.5t35 -54t32.5 -29t35 -8.5q29 0 51 17t35 34l7 -4q-11 -13 -25.5 -29.5t-31.5 -30.5t-37 -24
t-43 -10t-43 8t-38.5 26.5t-37 49t-39.5 76.5q-27 -33 -53.5 -62t-54.5 -51t-58.5 -34.5t-65.5 -12.5z" />
    <glyph glyph-name="quotesingle" unicode="'" horiz-adv-x="148" 
d="M131 639l-14 7l29 -14l-145 -229h-3z" />
    <glyph glyph-name="parenleft" unicode="(" horiz-adv-x="316" 
d="M312 -279q-40 22 -85.5 63.5t-84.5 100t-64.5 134t-25.5 165.5q0 91 25.5 167t64.5 134.5t84.5 99.5t85.5 62l5 -8q-39 -22 -84 -63t-82.5 -99t-62.5 -132t-25 -161q0 -88 25 -162t62.5 -132t82.5 -98.5t84 -62.5l-5 -8v0z" />
    <glyph glyph-name="parenright" unicode=")" horiz-adv-x="316" 
d="M-1 -271q39 22 84 62.5t82.5 98.5t62.5 132t25 162q0 87 -25 161t-62.5 132t-82.5 99t-84 63l5 8q40 -21 85.5 -62t84.5 -99.5t64.5 -134.5t25.5 -167q0 -90 -25.5 -165.5t-64.5 -134t-84.5 -100t-85.5 -63.5z" />
    <glyph glyph-name="asterisk" unicode="*" horiz-adv-x="303" 
d="M148 370l-3 105q0 2 -1.5 3.5t-2.5 -0.5l-61 -84l-61 -7q-3 0 -2 3l24 57l97 33q3 3 0 6l-97 37l-26 55q-1 3 2 3l63 -5l60 -88q1 -2 3 -1t2 3l6 109l45 38q3 3 3 0l15 -59l-65 -89q-2 -2 -0.5 -4.5t3.5 -1.5l104 32l51 -32q2 0 2 -1t-2 -1l-51 -31l-104 32
q-2 1 -3.5 -1.5t0.5 -4.5l62 -89l-13 -57q-2 -2 -4 -1z" />
    <glyph glyph-name="plus" unicode="+" horiz-adv-x="433" 
d="M211 232h-204l2 10h202v204h11v-204h202l2 -10h-203l-1 -208h-11v208z" />
    <glyph glyph-name="comma" unicode="," horiz-adv-x="162" 
d="M22 -104q27 14 51.5 40.5t24.5 63.5q0 17 -6.5 29t-17 18t-23.5 5.5t-25 -8.5q-5 10 -4.5 21.5t6.5 21.5t17.5 16.5t28.5 6.5q31 0 51.5 -20.5t20.5 -56.5q0 -21 -9.5 -42t-26 -40.5t-38.5 -34.5t-46 -24z" />
    <glyph glyph-name="hyphen" unicode="-" horiz-adv-x="280" 
d="M21 254h241l-3 -30h-241z" />
    <glyph glyph-name="period" unicode="." horiz-adv-x="184" 
d="M93 -12q-23 0 -38.5 15.5t-15.5 36.5q0 20 15.5 35.5t38.5 15.5t37.5 -15.5t14.5 -35.5q0 -21 -14.5 -36.5t-37.5 -15.5z" />
    <glyph glyph-name="slash" unicode="/" horiz-adv-x="249" 
d="M226 630h10l-210 -877h-10z" />
    <glyph glyph-name="zero" unicode="0" horiz-adv-x="529" 
d="M267 -4q33 0 61 18.5t48 50t31 73.5t11 90q0 52 -10.5 97t-31 78t-49 52t-64.5 19q-33 0 -61 -18.5t-48 -49.5t-31.5 -71.5t-11.5 -85.5q0 -57 10 -103.5t30 -80t49 -51.5t67 -18zM264 -11q-50 0 -92.5 18t-74 50.5t-49.5 77.5t-18 99t18.5 99.5t50 79t75 52.5t92.5 19
t91.5 -19t74 -52t49.5 -78.5t18 -98.5q0 -54 -18 -99.5t-49.5 -78.5t-74.5 -51t-93 -18z" />
    <glyph glyph-name="one" unicode="1" horiz-adv-x="322" 
d="M58 7l34 1q24 1 33.5 4t9.5 12v412l-104 14l3 5l168 24v-457q0 -6 9.5 -9t44.5 -5l30 -1l3 -7h-234z" />
    <glyph glyph-name="two" unicode="2" horiz-adv-x="425" 
d="M15 8q81 66 132 111.5t79.5 80t39 63t10.5 59.5q0 50 -28.5 80t-73.5 30q-44 0 -75 -21.5t-60 -72.5l-7 4q34 64 78.5 102.5t102.5 38.5q27 0 51 -9.5t41 -25.5t27 -38t10 -48q0 -34 -15.5 -66t-46.5 -66.5t-77 -75t-107 -91.5v-1l241 -1q12 0 29.5 27.5t40.5 87.5l4 10
l7 -1l-41 -185h-359z" />
    <glyph glyph-name="three" unicode="3" horiz-adv-x="393" 
d="M117 -201q-58 0 -85 22t-27 47q0 20 12.5 33t32.5 13q29 0 45.5 -26.5t9.5 -63.5q8 -3 16 -5q7 -2 15 -3t15 -1q28 0 55.5 10.5t49 31.5t35 51.5t13.5 71.5q0 34 -10 62.5t-29.5 49.5t-47.5 32.5t-64 11.5q-23 0 -44.5 -6t-39.5 -13l-4 6q46 30 81.5 53.5t60 45.5t37 46
t12.5 55q0 49 -29 78.5t-77 29.5q-43 0 -75.5 -21.5t-56.5 -69.5l-7 4q32 66 75.5 102.5t102.5 36.5q28 0 52 -10t42 -27t28 -39.5t10 -48.5q0 -30 -12.5 -54t-32.5 -44t-45 -37.5t-51 -33.5v-1q45 2 79.5 -11t58 -36t36 -54.5t12.5 -68.5q0 -42 -19 -81.5t-52 -70
t-78.5 -49t-99.5 -18.5z" />
    <glyph glyph-name="four" unicode="4" horiz-adv-x="464" 
d="M266 65v313h-1l-208 -313h209zM266 10h-257v3l307 460h16v-408l120 -1l-20 -54h-100v-194h-66v194z" />
    <glyph glyph-name="five" unicode="5" horiz-adv-x="377" 
d="M84 -201q-109 0 -109 64q0 18 12.5 30.5t32.5 12.5q14 0 24.5 -7.5t18 -19t12.5 -26.5t6 -30q9 -2 20 -4.5t24 -2.5q28 0 55 13t48.5 36t34.5 54.5t13 67.5q0 40 -17 74t-48 60t-75 44t-97 26l72 277h243l-18 -69h-232l-37 -144q127 -21 197.5 -81t70.5 -147
q0 -44 -19.5 -85.5t-53.5 -73t-80 -50.5t-98 -19z" />
    <glyph glyph-name="six" unicode="6" horiz-adv-x="478" 
d="M250 -1q59 0 95 46t36 131q0 36 -10.5 68t-29.5 56t-45 37.5t-57 13.5q-36 0 -70 -15.5t-60 -47.5q-2 -6 -4.5 -25t-2.5 -33q0 -48 10 -90.5t28.5 -73.5t46 -49t63.5 -18zM247 -11q-50 0 -91 18.5t-69.5 51.5t-44 78t-15.5 98q0 81 32 153t89 128t135 92t169 45l1 -7
q-76 -12 -135 -46t-101.5 -80.5t-68.5 -102t-38 -112.5l1 -2q32 35 76 59t93 24q38 0 69.5 -13.5t54.5 -38t36 -58.5t13 -74q0 -49 -17.5 -88t-46 -67t-66 -43t-76.5 -15z" />
    <glyph glyph-name="seven" unicode="7" horiz-adv-x="409" 
d="M367 398l-1 5h-205q-32 0 -53.5 -3t-36 -12t-23 -24.5t-15.5 -41.5l-3 -9l-8 1l18 154h358l1 -4l-258 -648h-58z" />
    <glyph glyph-name="eight" unicode="8" horiz-adv-x="459" 
d="M270 347q34 22 55 55.5t21 78.5q0 29 -9 56t-25 48t-39 33.5t-51 12.5q-25 0 -45.5 -10t-35.5 -26.5t-23 -38t-8 -44.5q0 -31 13 -55.5t35 -44t51 -35.5t61 -30zM239 -3q63 0 98.5 36t35.5 90q0 34 -15.5 61t-40.5 49t-57 40t-66 33q-45 -20 -72.5 -60.5t-27.5 -94.5
q0 -31 10 -59t29 -49t46 -33.5t60 -12.5zM230 -14q-43 0 -80 12.5t-64 34.5t-42.5 52t-15.5 66q0 27 11.5 52t32 45.5t49.5 36.5t64 25v2q-28 15 -52.5 31t-42.5 34.5t-28.5 40.5t-10.5 50q0 31 13.5 62t37.5 55.5t57 40t72 15.5q38 0 71 -12t57 -33.5t38 -50.5t14 -64
q0 -42 -37 -78.5t-95 -58.5v-1q32 -16 59.5 -33.5t48 -38.5t32.5 -47t12 -60q0 -36 -16 -68t-43 -56.5t-63.5 -39t-78.5 -14.5z" />
    <glyph glyph-name="nine" unicode="9" horiz-adv-x="478" 
d="M238 125q37 0 70 14.5t60 47.5q2 7 5 25.5t3 33.5q0 48 -10 90.5t-29 74t-46.5 49.5t-63.5 18q-58 0 -94.5 -46.5t-36.5 -129.5q0 -36 10.5 -68.5t29.5 -56.5t45 -38t57 -14zM24 -169q77 13 135.5 46.5t101 80t68.5 101.5t38 112l-1 1q-32 -35 -75.5 -59.5t-92.5 -24.5
q-38 0 -69.5 14t-54.5 39t-36 59.5t-13 75.5q0 48 17.5 87.5t46 67t66 42.5t76.5 15q49 0 89.5 -19t69 -52t44.5 -78.5t16 -98.5q0 -81 -32 -152.5t-89 -127t-135 -91.5t-169 -45z" />
    <glyph glyph-name="colon" unicode=":" horiz-adv-x="182" 
d="M93 292q-23 0 -38.5 16.5t-15.5 36.5t15.5 35t38.5 15t37.5 -15t14.5 -35t-14.5 -36.5t-37.5 -16.5zM93 -12q-23 0 -38.5 15.5t-15.5 35.5t15.5 35t38.5 15t37.5 -15t14.5 -35t-14.5 -35.5t-37.5 -15.5z" />
    <glyph glyph-name="semicolon" unicode=";" horiz-adv-x="162" 
d="M85 292q-23 0 -38.5 16t-15.5 36t15.5 35.5t38.5 15.5t37.5 -15.5t14.5 -35.5t-14.5 -36t-37.5 -16zM22 -103q27 14 51.5 40t24.5 63q0 17 -6.5 29t-17 18t-23.5 5.5t-25 -8.5q-5 10 -4.5 21.5t6.5 21t17.5 16t28.5 6.5q31 0 51.5 -20.5t20.5 -56.5q0 -21 -9.5 -41.5
t-26 -39.5t-38.5 -34t-46 -24z" />
    <glyph glyph-name="less" unicode="&#x3c;" horiz-adv-x="420" 
d="M5 230v11l398 196l5 -11l-387 -189v-2l387 -191l-5 -11z" />
    <glyph glyph-name="equal" unicode="=" horiz-adv-x="428" 
d="M15 328h398l-3 -10h-392zM18 153h392l3 -10h-398z" />
    <glyph glyph-name="greater" unicode="&#x3e;" horiz-adv-x="420" 
d="M12 44l387 191v2l-387 189l5 11l398 -196v-11l-398 -197z" />
    <glyph glyph-name="question" unicode="?" horiz-adv-x="299" 
d="M139 178q-13 11 -27 25.5t-26 31t-20 32t-8 27.5q0 20 5 34t17 25.5t31.5 21.5t48.5 23q28 12 47 21.5t31 18t17.5 17.5t5.5 21q0 15 -7.5 32t-25 31.5t-47 24.5t-73.5 10q-23 0 -41.5 -3t-31.5 -7q-10 13 -10 42q0 16 14 25t53 9q41 0 74 -15.5t57 -41.5t37 -59.5
t13 -68.5q0 -26 -4.5 -43t-15.5 -30t-29.5 -23t-45.5 -23q-18 -8 -33 -15t-26.5 -15t-17.5 -17.5t-6 -23.5q0 -22 16 -44.5t36 -42.5h-8v0zM143 -14q-23 0 -38 16t-15 36t15 35t38 15t37.5 -15t14.5 -35t-14.5 -36t-37.5 -16z" />
    <glyph glyph-name="at" unicode="@" horiz-adv-x="766" 
d="M291 111q14 0 32 12.5t38 35.5t41.5 55t42.5 71q9 18 17.5 37.5t8.5 30.5q0 12 -6.5 24.5t-17 23.5t-24.5 18t-28 7t-26 -6t-23 -17q-18 -17 -36.5 -44t-32.5 -58t-23 -63.5t-9 -60.5q0 -29 13 -47.5t33 -18.5zM388 -103q-80 0 -147 25t-115 70.5t-74.5 108.5t-26.5 138
q0 83 30.5 156.5t83.5 128t123.5 86.5t150.5 32q71 0 131.5 -23t104 -64t68 -97.5t24.5 -123.5q0 -56 -20 -105.5t-52.5 -87t-73.5 -59.5t-83 -22q-51 0 -76.5 23.5t-25.5 60.5q0 18 5.5 42.5t18.5 50.5h-2q-56 -82 -96.5 -126.5t-78.5 -44.5q-33 0 -56.5 24.5t-23.5 59.5
t14.5 71.5t37.5 71t50.5 65t52.5 53.5t50.5 37.5t52.5 14.5q23 0 36.5 -24t12.5 -64h1l38 114l64 -4l-70 -179l-33 -86q-28 -73 -12.5 -101.5t67.5 -28.5q34 0 68 18.5t61.5 51.5t45 77.5t17.5 96.5q0 65 -24 119.5t-66 94.5t-100.5 62.5t-127.5 22.5q-78 0 -147 -31.5
t-120 -85t-81 -125t-30 -152.5q0 -73 26 -134t72.5 -105.5t111.5 -69t143 -24.5q54 0 104 15t92 40.5t75 60t52 74.5l9 -4q-20 -41 -53.5 -76.5t-76.5 -62t-94.5 -41.5t-107.5 -15z" />
    <glyph glyph-name="A" unicode="A" horiz-adv-x="625" 
d="M184 274l-48 -135q-14 -41 -20.5 -65.5t-1.5 -38t23 -19t52 -8.5l21 -2l3 -6h-217l3 6l16 2q23 3 38 9.5t28.5 26.5t29.5 59t41 108l124 345l-10 28q19 7 31 20.5t20 31.5h9l182 -531q10 -30 17.5 -48t16.5 -28.5t20 -15t29 -5.5l28 -2l3 -6h-262l3 6l32 2q30 2 41 17.5
t0 50.5l-66 198h-186zM366 284l-3.5 11t-9.5 29t-13.5 41t-15.5 47q-18 56 -43 128h-1l-92 -256h178z" />
    <glyph glyph-name="B" unicode="B" horiz-adv-x="562" 
d="M240 350q81 2 121 39t40 93q0 131 -158 131h-52v-264zM261 9q8 1 13 2t8 1t1 0q41 2 70.5 16t48.5 35.5t27.5 49t8.5 55.5q0 37 -13.5 68t-37.5 54t-58 36t-75 13q-17 0 -34 -0.5t-29 -2.5v-309l70 -18v0zM27 6l36 4q26 2 37 6.5t11 9.5v576q0 5 -9.5 8t-48.5 6l-25 3
l-3 6h237q60 0 103.5 -10t71 -28t40.5 -42.5t13 -52.5q0 -25 -9.5 -47.5t-31.5 -41.5t-58.5 -32.5t-89.5 -21.5v-3q56 -3 98 -17.5t70 -38t42 -53.5t14 -64q0 -77 -67 -125t-193 -48h-241z" />
    <glyph glyph-name="C" unicode="C" horiz-adv-x="671" 
d="M374 -15q-76 0 -139.5 23t-109.5 66t-72 103t-26 133q0 72 25.5 132.5t72 105t111.5 69t144 24.5q52 0 97.5 -14.5t73.5 -29.5l54 26l8 -184h-6l-83 152q-20 16 -58.5 27.5t-86.5 11.5q-63 0 -112 -24.5t-83 -66.5t-51.5 -99t-17.5 -122q0 -72 19.5 -131.5t54.5 -101.5
t83 -65.5t105 -23.5q44 0 77.5 10t60 29t48 46.5t41.5 62.5l25 42h6l-36 -152l-34 -7q-14 -7 -35.5 -14.5t-47 -13.5t-53.5 -10t-55 -4z" />
    <glyph glyph-name="D" unicode="D" horiz-adv-x="651" 
d="M266 11q69 1 120.5 25.5t85.5 65t51 93t17 108.5q0 64 -16.5 121t-51.5 99.5t-88.5 67.5t-127.5 25h-65v-587l75 -18v0zM27 6l36 4q26 2 37 6.5t11 9.5v576q0 5 -9.5 8t-48.5 6l-25 3l-3 6l246 3q87 1 153 -21t111 -61.5t68 -95.5t23 -124q0 -70 -25.5 -130t-75 -103.5
t-120.5 -68t-163 -24.5h-218z" />
    <glyph glyph-name="E" unicode="E" horiz-adv-x="577" 
d="M25 6l36 4q26 2 38 6.5t12 9.5v576q0 5 -9.5 8t-48.5 6l-27 3l-3 6h462l19 -178h-5l-6 14q-14 39 -28.5 68t-33.5 48.5t-45.5 29t-65.5 9.5h-129v-284h81q34 2 56 5.5t36 12t23 24t16 39.5l5 14l6 -1l-20 -202l-6 1l-1 13q-2 27 -7.5 42.5t-18.5 24t-36 11.5t-60 4l-74 2
v-308l145 -4q45 1 76 14t53 35.5t38 52.5t30 64l6 14l6 -1l-41 -189h-482z" />
    <glyph glyph-name="F" unicode="F" horiz-adv-x="543" 
d="M25 6l40 4q26 2 36 6.5t10 9.5v576q0 5 -8.5 8t-47.5 6l-29 3l-3 6h467l20 -182l-6 -1l-5 13q-13 38 -26.5 68t-33.5 50.5t-50 31.5t-76 11h-122v-290h71q34 2 56 5.5t36 12t23 24t16 39.5l5 13l6 -1l-20 -201l-6 1l-1 13q-2 27 -7.5 42.5t-18.5 24t-36 11.5t-60 4l-64 2
v-292q0 -5 9.5 -8.5t48.5 -5.5l49 -3l3 -7h-279z" />
    <glyph glyph-name="G" unicode="G" horiz-adv-x="686" 
d="M370 -14q-75 0 -137.5 23t-108.5 65t-71.5 101t-25.5 132q0 72 25.5 133t72 106t111.5 70t144 25q52 0 97 -13.5t72 -28.5l51 24l4 -182h-6l-76 150q-20 16 -57 27.5t-88 11.5q-62 0 -110.5 -24.5t-82.5 -67.5t-51.5 -100.5t-17.5 -122.5q0 -72 20.5 -130.5t56.5 -100
t84.5 -64.5t103.5 -23q39 0 77 9.5t58 25.5v217q0 5 -11 8.5t-50 5.5l-39 3l-3 6h267l-3 -6l-36 -4q-26 -2 -37 -6.5t-11 -9.5v-201l56 6l1 -4q-28 -10 -63.5 -21t-73 -20t-74.5 -14.5t-68 -5.5z" />
    <glyph glyph-name="H" unicode="H" horiz-adv-x="719" 
d="M27 6l36 4q26 2 37 6.5t11 9.5v576q0 5 -9.5 8t-48.5 6l-25 3l-3 6h257l-3 -6l-40 -4q-26 -2 -37 -6.5t-11 -9.5v-276h337v279q0 5 -9.5 8t-48.5 6l-29 3l-3 6h257l-3 -6l-36 -4q-26 -2 -37 -6.5t-11 -9.5v-576q0 -5 9.5 -8t48.5 -6l25 -3l3 -6h-257l3 6l40 4
q26 2 37 6.5t11 9.5v287h-337v-290q0 -5 9.5 -8t48.5 -6l29 -3l3 -6h-257z" />
    <glyph glyph-name="I" unicode="I" horiz-adv-x="322" 
d="M33 6l40 4q26 2 37 6.5t11 9.5v576q0 5 -9.5 8t-48.5 6l-29 3l-3 6h261l-3 -6l-40 -4q-26 -2 -37 -6.5t-11 -9.5v-576q0 -5 9.5 -8t48.5 -6l29 -3l3 -6h-261z" />
    <glyph glyph-name="J" unicode="J" horiz-adv-x="302" 
d="M10 -166q-33 0 -54 15t-21 40q0 21 14.5 36t37.5 15q19 0 31 -10t16.5 -24t0.5 -30t-18 -28q42 -5 68 40t26 138v576q0 5 -9.5 8.5t-48.5 5.5l-29 3l-3 6h261l-3 -6l-40 -4q-26 -2 -37 -6.5t-11 -9.5v-589q0 -15 -15.5 -44t-41 -58.5t-58 -51.5t-66.5 -22z" />
    <glyph glyph-name="K" unicode="K" horiz-adv-x="658" 
d="M27 6l38 4q26 2 36 6.5t10 9.5v576q0 5 -8.5 8t-47.5 6l-27 3l-3 6h262l-3 -6l-45 -4q-26 -2 -37 -6.5t-11 -9.5v-334l164 166q60 61 91.5 96.5t38 54.5t-9.5 25t-50 9l-39 3l-2 6h244l-3 -6l-12 -1q-19 -2 -32.5 -4t-26 -8t-27 -18t-36.5 -33t-53 -53.5t-77 -79.5
l-15 -15l195 -322q16 -26 26 -41t19 -22.5t19 -9.5t26 -4l23 -2l3 -6h-255l3 6l29 2q35 2 36 22t-22 61l-155 262l-102 -102v-228q0 -5 9.5 -8t48.5 -6l34 -3l3 -6h-262z" />
    <glyph glyph-name="L" unicode="L" horiz-adv-x="542" 
d="M27 6l38 4q26 2 36 6.5t10 9.5v576q0 5 -8.5 8t-47.5 6l-27 3l-3 6h277l-3 -6l-60 -4q-26 -2 -37 -6.5t-11 -9.5v-585l118 -5q45 0 74.5 13t51 35.5t37 54t31.5 69.5l6 13h6l-39 -194h-452z" />
    <glyph glyph-name="M" unicode="M" horiz-adv-x="815" 
d="M23 6l23 1q42 3 58 12t16 23l14 560q-10 7 -27 10t-37 5l-27 2l-3 6h175l198 -517h1l207 517h172l-3 -6l-50 -4q-25 -2 -34.5 -6.5t-9.5 -9.5l10 -576q0 -5 9.5 -7.5t46.5 -6.5l29 -3l3 -6h-259l3 6l48 4q25 2 33 6.5t8 9.5l-11 556h-1l-233 -582h-7l-215 556
q-4 11 -9 20t-9 14l-10 -550q0 -11 22 -21t75 -12l18 -1l3 -6h-230z" />
    <glyph glyph-name="N" unicode="N" horiz-adv-x="684" 
d="M129 560h-1l1 -519q0 -11 18.5 -20t64.5 -13l19 -2l3 -6h-210l3 6l20 2q32 3 51.5 12t19.5 23l2 526q-11 12 -32 27.5t-61 21.5l-13 2l-3 6h168l393 -501h1l-1 460q0 11 -18.5 19t-64.5 13l-19 2l-3 6h210l-3 -6l-20 -2q-32 -3 -51.5 -11.5t-19.5 -22.5l-2 -588h-7z" />
    <glyph glyph-name="O" unicode="O" horiz-adv-x="715" 
d="M360 -3q56 0 100 22t75.5 63t48 99.5t16.5 131.5q0 70 -18.5 128t-51 100t-77.5 65.5t-98 23.5q-55 0 -99 -22.5t-75.5 -64t-48.5 -100.5t-17 -133q0 -69 18 -127t50.5 -99t77.5 -64t99 -23zM356 -14q-71 0 -131 24t-104 66.5t-69 102.5t-25 132q0 65 27 124t72.5 105
t105.5 73t126 27q71 0 131.5 -24t104.5 -67.5t69 -103.5t25 -133q0 -65 -27 -124t-72.5 -104t-106 -71.5t-126.5 -26.5z" />
    <glyph glyph-name="P" unicode="P" horiz-adv-x="539" 
d="M278 314q72 0 112 39t40 111q0 37 -9 65.5t-28.5 48t-51.5 29.5t-79 9l-71 -1v-290q16 -5 35.5 -8t51.5 -3zM13 6l50 4q26 2 37 6.5t11 9.5v576q0 5 -9.5 8t-48.5 6l-39 3l-3 6h278q114 0 170 -39t56 -110q0 -38 -17.5 -70t-48.5 -55t-74.5 -35.5t-96.5 -12.5
q-23 0 -47 2.5t-40 4.5v-287q0 -5 9.5 -8.5t48.5 -5.5l49 -3l3 -6h-291z" />
    <glyph glyph-name="Q" unicode="Q" horiz-adv-x="715" 
d="M360 -3q56 0 100 22t75.5 63t48 99.5t16.5 131.5q0 69 -18.5 127t-51 100.5t-77.5 66t-98 23.5q-55 0 -99 -22.5t-75.5 -64.5t-48.5 -101t-17 -132q0 -69 18 -127t50.5 -99t77.5 -64t99 -23zM623 -179q-38 0 -77.5 5.5t-75.5 23t-66.5 50t-51.5 86.5q-70 1 -129.5 25.5
t-103 67.5t-68 102t-24.5 130q0 65 27 124t72.5 105t105.5 73t126 27q71 0 131.5 -24t104.5 -67.5t69 -104t25 -132.5q0 -54 -18.5 -103.5t-51.5 -91t-77 -72t-95 -45.5q24 -58 53 -92t64.5 -50.5t78.5 -18.5t95 4l2 -6q-9 -3 -24 -6t-31.5 -5.5t-32.5 -3.5t-28 -1z" />
    <glyph glyph-name="R" unicode="R" horiz-adv-x="625" 
d="M281 322q66 0 105 38t39 107q0 70 -46.5 111t-137.5 37l-50 -2v-275q24 -8 44.5 -12t45.5 -4zM13 6l50 4q15 2 31.5 6.5t16.5 9.5v576q0 5 -9.5 8t-48.5 6l-39 3l-3 6h257q118 0 180 -41t62 -119q0 -28 -12 -53.5t-33 -46t-49.5 -35t-61.5 -21.5l146 -223
q15 -23 27.5 -37.5t24.5 -23.5t25.5 -13t31.5 -5l13 -1l4 -6h-164l-7 13l-184 296q-20 2 -40 7.5t-40 12.5v-306q0 -3 6 -5t14.5 -4t18.5 -3t19 -2l39 -3l3 -6h-281z" />
    <glyph glyph-name="S" unicode="S" horiz-adv-x="484" 
d="M234 -14q-44 0 -95 10.5t-92 24.5l-10 142h6l21 -49q26 -63 68.5 -90.5t102.5 -27.5q34 0 61.5 11t47.5 30.5t31 46t11 58.5q0 62 -41 97.5t-115 59.5q-33 11 -63 25t-52.5 34.5t-36 47.5t-13.5 63q0 34 13 64.5t37.5 54t59.5 37.5t78 14q37 0 67.5 -7t55.5 -16l40 12
l9 -153h-6l-66 120q-20 15 -43.5 25t-57.5 10q-28 0 -51 -9t-40 -24.5t-26.5 -37t-9.5 -47.5q0 -29 11 -50t30.5 -37t46 -28t57.5 -23q38 -13 71.5 -29.5t58 -39t39 -52.5t14.5 -71q0 -38 -16 -73.5t-45.5 -62.5t-69.5 -43.5t-88 -16.5z" />
    <glyph glyph-name="T" unicode="T" horiz-adv-x="632" 
d="M178 6l50 4q26 2 37 6.5t11 9.5v590h-64q-29 -2 -53.5 -15t-45 -32.5t-37.5 -44.5t-31 -52l-7 -13h-7l41 166h497l30 -166h-6l-6 13q-33 74 -71 107.5t-97 36.5h-63v-593q0 -5 9.5 -8t48.5 -6l39 -3l3 -6h-281z" />
    <glyph glyph-name="U" unicode="U" horiz-adv-x="666" 
d="M350 -14q-129 0 -186.5 53t-57.5 176v387q0 5 -9.5 8.5t-48.5 6.5l-39 3l-3 6h281l-3 -6l-50 -4q-26 -2 -37 -7t-11 -10v-371q0 -109 47 -159t148 -50q91 0 139 56t48 174l-1 336q0 11 -22 19.5t-68 13.5l-19 2l-3 6h215l-3 -6l-20 -2q-32 -3 -50.5 -12t-18.5 -23
l-1 -337q-1 -124 -54.5 -192t-172.5 -68z" />
    <glyph glyph-name="V" unicode="V" horiz-adv-x="631" 
d="M111 521q-12 31 -19.5 49.5t-15.5 28.5t-19 14t-30 5l-29 2l-3 6h260l-3 -6l-35 -1q-33 -2 -43.5 -12.5t2.5 -46.5l176 -463h1l143 390q14 41 20.5 65t2 37.5t-22 19t-52.5 9.5l-21 2l-3 6h216l-3 -6l-16 -2q-22 -3 -36 -8t-27 -22.5t-27 -50.5t-35 -91l-169 -460h-7z
" />
    <glyph glyph-name="W" unicode="W" horiz-adv-x="989" 
d="M112 521q-11 30 -19 48t-16.5 28t-20 14.5t-30.5 5.5l-29 2l-2 6h260l-3 -6l-32 -1q-31 -1 -42.5 -11.5t1.5 -46.5l171 -469h2l144 363l-25 67q-11 29 -19 47t-17 28.5t-21 15t-31 5.5l-28 2l-3 6h259l-3 -6l-31 -1q-33 -2 -43 -12.5t3 -45.5l172 -467h2l139 388
q15 40 21 65t0.5 39.5t-23.5 21.5t-53 10l-21 2l-3 6h216l-3 -6l-16 -2q-22 -3 -35.5 -8.5t-25.5 -23t-25 -50t-33 -89.5l-167 -460h-9l-171 456h-1l-180 -456h-10z" />
    <glyph glyph-name="X" unicode="X" horiz-adv-x="634" 
d="M-5 6l18 1q24 2 41.5 7.5t34.5 19.5t36 39t47 65l111 164l-145 218l-30 45t-22 29.5t-21 16.5t-26 6l-28 2l-4 6h263l-2 -5l-39 -1q-17 0 -26.5 -4t-10.5 -13.5t6.5 -26.5t23.5 -43l111 -170h1l89 133q25 39 35 61.5t6.5 34.5t-19 17t-41.5 8l-28 3l-3 6h236l-3 -6
l-18 -1q-24 -1 -40.5 -5.5t-32.5 -18t-35 -37.5t-46 -65l-94 -139q13 -20 28 -43q13 -20 29.5 -44.5t33.5 -50.5q40 -61 92 -139q12 -18 20.5 -30.5t16.5 -20.5t17.5 -12t25.5 -5l27 -2l3 -6h-261l3 6l38 1q34 1 39.5 14.5t-13.5 42.5l-150 228h-1l-4.5 -6.5t-12 -17.5
t-17 -25t-19.5 -29q-24 -34 -53 -79q-25 -38 -35.5 -61.5t-8 -37t17.5 -19t41 -8.5l28 -3l3 -6h-236z" />
    <glyph glyph-name="Y" unicode="Y" horiz-adv-x="610" 
d="M167 6l50 4q26 2 37 6.5t11 9.5v255l-148 261q-11 20 -20 34t-19 22.5t-22 13t-29 5.5l-28 2l-3 6h264l-3 -6l-30 -1q-40 -2 -43.5 -16.5t18.5 -54.5l136 -241h2l94 178q20 39 29.5 63t7.5 38.5t-17.5 21.5t-44.5 10l-25 2l-3 6h220l-3 -6l-22 -2q-19 -1 -33 -5.5
t-28 -17.5t-29.5 -38t-37.5 -68l-103 -193v-272q0 -5 9.5 -8t48.5 -6l39 -3l3 -6h-281z" />
    <glyph glyph-name="Z" unicode="Z" horiz-adv-x="569" 
d="M33 3l397 610v3h-164q-47 0 -79.5 -12t-55.5 -33t-39 -50t-29 -64l-5 -12h-6l21 180h453v-4l-396 -608v-2l178 -2q52 0 87 12.5t59 36t40.5 56.5t31.5 75l6 14h8l-32 -203h-475v3z" />
    <glyph glyph-name="bracketleft" unicode="[" horiz-adv-x="306" 
d="M53 625h244v-10h-233v-852h233v-10h-244v872z" />
    <glyph glyph-name="backslash" unicode="\" horiz-adv-x="232" 
d="M-6 630h10l210 -877h-10z" />
    <glyph glyph-name="bracketright" unicode="]" horiz-adv-x="306" 
d="M9 -237h233v852h-233v10h244v-872h-244v10z" />
    <glyph glyph-name="asciicircum" unicode="^" 
d="M184 667h2l134 -187h-4l-130 112h-2l-130 -112h-4z" />
    <glyph glyph-name="underscore" unicode="_" horiz-adv-x="446" 
d="M22 1h402l3 -29h-408z" />
    <glyph glyph-name="grave" unicode="`" 
d="M39 678h79l109 -187h-4z" />
    <glyph glyph-name="a" unicode="a" horiz-adv-x="397" 
d="M166 32q49 0 90 41l6 159q-53 -13 -85.5 -27.5t-50 -30t-23 -33t-5.5 -35.5q0 -34 19.5 -54t48.5 -20zM318 -10q-26 0 -43.5 19t-19.5 51v1q-29 -27 -61 -48.5t-67 -21.5q-45 0 -72.5 27.5t-27.5 65.5q0 24 10.5 45.5t37 41t72 37t115.5 34.5l1 44q2 38 -6 62.5t-21.5 39
t-31.5 20.5t-38 6q-15 0 -30 -4t-26.5 -10t-19 -12t-7.5 -11q0 -3 4 -7t8.5 -10.5t8.5 -14.5t4 -18q0 -15 -11.5 -27t-31.5 -12q-19 0 -31 10.5t-12 28.5q0 19 19 38.5t48 35.5t62.5 26t61.5 10q31 0 54.5 -6.5t39 -23t22 -45t4.5 -71.5l-10 -216q-2 -25 7 -35t26 -10
q12 0 23 8t22 19l5 -3q-7 -8 -15.5 -19t-19.5 -21t-24.5 -17t-28.5 -7z" />
    <glyph glyph-name="b" unicode="b" horiz-adv-x="470" 
d="M244 -1q30 0 54 15.5t40.5 42.5t25 63.5t8.5 78.5q0 39 -10 73.5t-28.5 60t-44.5 40t-58 14.5q-37 0 -65 -17.5t-51 -41.5v-237q17 -38 52 -65t77 -27zM46 576q0 29 -7.5 40.5t-33.5 15.5l-23 4l1 5l132 33v-329l2 -2q32 36 70 62t87 26q37 0 69.5 -15t56.5 -42.5
t37.5 -65.5t13.5 -84q0 -56 -19.5 -100t-50.5 -74.5t-70 -46.5t-77 -16q-39 0 -75 11t-59 24h-1l-47 -41h-6v595z" />
    <glyph glyph-name="c" unicode="c" horiz-adv-x="403" 
d="M217 -13q-42 0 -78 16.5t-63 46t-42 68.5t-15 84q0 49 16.5 91.5t45.5 74.5t70 50.5t90 18.5q30 0 56.5 -6.5t46 -18.5t30.5 -29t11 -38q0 -20 -14 -34t-31 -14q-20 0 -32.5 12.5t-12.5 29.5q0 24 10 34t10 16q0 5 -6 12t-16 13t-23 10.5t-27 4.5q-30 0 -57 -14.5
t-47 -40.5t-32 -61.5t-12 -78.5q0 -45 12 -81t33.5 -62t50 -40t61.5 -14q46 0 76.5 17.5t58.5 62.5l8 -3q-33 -59 -75 -93t-103 -34z" />
    <glyph glyph-name="d" unicode="d" horiz-adv-x="482" 
d="M239 32q39 0 66 17.5t49 41.5v238q-17 38 -51.5 64.5t-75.5 26.5q-30 0 -54 -15t-40.5 -41.5t-25.5 -62.5t-9 -79q0 -39 10 -73.5t28.5 -60.5t44.5 -41t58 -15zM354 74l-2 1q-32 -37 -69.5 -62.5t-86.5 -25.5q-37 0 -69.5 15.5t-56.5 43t-37.5 66.5t-13.5 85
q0 56 19.5 99.5t51 73.5t71.5 45.5t80 15.5q35 0 61.5 -6.5t50.5 -19.5h1v171q0 29 -7 41t-33 15l-33 4l1 5l142 33v-619q0 -17 4.5 -23.5t20.5 -8.5l39 -6l-1 -5l-132 -28z" />
    <glyph glyph-name="e" unicode="e" horiz-adv-x="413" 
d="M310 298q0 25 -5 48.5t-15.5 41.5t-27 28.5t-39.5 10.5q-21 0 -40 -10.5t-35.5 -28.5t-28.5 -41.5t-18 -50.5zM218 -13q-42 0 -78.5 16.5t-63.5 46t-42 68.5t-15 84q0 48 15 90.5t43 75t66.5 51t86.5 18.5q38 0 67.5 -10.5t49.5 -29.5t30.5 -43.5t10.5 -53.5
q0 -4 -0.5 -6.5l-1.5 -7.5l-287 1q-2 -11 -3 -27t-1 -27q0 -44 12 -80.5t33.5 -62t50 -39.5t61.5 -14q46 0 78 17.5t61 62.5l7 -3q-34 -59 -76.5 -93t-103.5 -34z" />
    <glyph glyph-name="f" unicode="f" horiz-adv-x="276" 
d="M24 6l17 1q23 2 32.5 3.5t9.5 10.5v365l-73 1l14 35h58l2 26q5 56 23 96.5t44 66.5t56.5 38.5t60.5 12.5q32 0 47 -13.5t15 -31.5q0 -15 -12.5 -27t-30.5 -12q-20 0 -36 16t-21 39l-2 7l-13 2q-38 -14 -50 -59.5t-12 -114.5v-46h109l-14 -36h-95v-366q0 -6 7 -9t40 -4
l33 -1l3 -6h-215z" />
    <glyph glyph-name="g" unicode="g" horiz-adv-x="444" 
d="M205 154q40 0 67.5 35t27.5 93q0 64 -22.5 104.5t-72.5 40.5q-39 0 -65 -36.5t-26 -95.5q0 -65 25 -103t66 -38zM216 -230q33 0 63 10t52.5 27.5t35.5 40.5t13 50q0 40 -30 63.5t-98 25.5h-25t-30.5 -1t-30 -2.5t-25.5 -2.5q-13 -5 -26.5 -15t-25 -23.5t-19 -30
t-7.5 -34.5q0 -47 42.5 -77.5t110.5 -30.5zM170 -248q-75 0 -118.5 28.5t-43.5 79.5q0 21 11.5 40.5t29.5 35.5t39.5 28t40.5 19v2q-51 5 -81 23t-30 48q0 20 10.5 36.5t27 30t37 22.5t40.5 12v2q-18 6 -34.5 17.5t-29.5 28t-20.5 37t-7.5 43.5q0 32 13 59.5t35 47.5
t52.5 31.5t64.5 11.5q32 0 59.5 -10t49.5 -27l117 22l-8 -43l-94 9l-1 -3q17 -16 29.5 -40t12.5 -50q0 -31 -13 -58t-36 -47t-53.5 -31t-66.5 -11q-16 0 -32 2.5t-24 4.5q-29 -5 -47.5 -20.5t-18.5 -36.5q0 -24 20 -33.5t64 -9.5q20 0 52.5 1.5t59.5 1.5q70 0 108.5 -29
t38.5 -81q0 -41 -18.5 -76.5t-52 -61.5t-80 -41t-102.5 -15z" />
    <glyph glyph-name="h" unicode="h" horiz-adv-x="481" 
d="M8 6l17 1q23 2 32 4t9 11v553q0 30 -7 41t-33 16l-23 4l1 4l132 33v-325l1 -2q15 12 33 28t39.5 29.5t46 23t51.5 9.5q46 0 74 -28q32 -33 32 -96v-291q0 -2 1 -4t5.5 -4t14.5 -3.5t29 -2.5l14 -1l3 -6h-200l3 6l18 1q27 2 34.5 5.5t7.5 9.5v276q0 88 -87 88
q-36 0 -66 -14.5t-54 -37.5v-130v-184q0 -6 8.5 -8.5t42.5 -4.5l14 -1l3 -6h-199z" />
    <glyph glyph-name="i" unicode="i" horiz-adv-x="218" 
d="M102 525q-26 0 -38 17t-12 32t12 32.5t38 17.5t37.5 -17.5t11.5 -32.5t-11.5 -32t-37.5 -17zM16 6l18 1q23 2 32.5 4t9.5 11v291q0 23 -1.5 37.5t-6 22.5t-12.5 12t-21 6l-23 4l1 4l133 35v-414q0 -6 8.5 -8.5t41.5 -4.5l14 -1l3 -6h-200z" />
    <glyph glyph-name="j" unicode="j" horiz-adv-x="204" 
d="M96 525q-26 0 -38 17t-12 32t12 32.5t38 17.5t37.5 -17.5t11.5 -32.5t-11.5 -32t-37.5 -17zM-16 -249q-35 0 -52 14.5t-17 34.5q0 19 13 30t30 11q22 0 38.5 -18t23.5 -49q27 6 38.5 40t11.5 92v407q0 23 -1.5 37.5t-6 22.5t-12.5 12t-21 6l-23 4l1 4l133 35v-462
q0 -41 -13.5 -80.5t-35.5 -70.5t-50 -50.5t-57 -19.5z" />
    <glyph glyph-name="k" unicode="k" horiz-adv-x="457" 
d="M8 6l17 1q23 2 32 4t9 11v553q0 30 -7 41.5t-33 15.5l-23 4l1 4l132 33v-479l99 97q29 29 50 55.5t21 40.5q0 24 -53 28l-13 1l-2 6h189l-3 -6l-21 -2q-17 -1 -31.5 -8.5t-30.5 -21t-36.5 -35t-50.5 -51.5l-10 -10q-2 -2 -3 -3.5t-3 -3.5l-3 -3l125 -206
q12 -19 20.5 -31.5t16.5 -19t18 -9.5t26 -5l11 -1l3 -6h-139l-5 12l-128 215l-47 -45v-162q0 -6 8.5 -8.5t41.5 -4.5l14 -1l3 -6h-198z" />
    <glyph glyph-name="l" unicode="l" horiz-adv-x="213" 
d="M12 6l17 1q23 2 32.5 4t9.5 11v531q0 23 -1.5 37.5t-6 22.5t-12.5 12t-21 7l-22 4l1 4l132 33v-653q0 -6 8 -8.5t42 -4.5l14 -1l3 -6h-198z" />
    <glyph glyph-name="m" unicode="m" horiz-adv-x="734" 
d="M16 6l18 1q23 2 32.5 4t9.5 11v290q0 23 -1.5 37.5t-6 23t-12.5 12.5t-21 6l-23 4l1 4l134 35l-4 -84l2 -1q12 12 28 27.5t35 28.5t41.5 22t48.5 9t45 -8t33 -22q9 -10 16.5 -24.5t9.5 -33.5l1 -1q13 14 29 29.5t35.5 29t42 22t48.5 8.5t44.5 -7.5t33.5 -22.5
q16 -16 23.5 -42t7.5 -55v-288q0 -2 1 -4t5.5 -3.5t14.5 -3t29 -3.5l13 -1l3 -6h-199l3 6l18 1q26 2 33.5 5.5t7.5 9.5v276q0 45 -19.5 66.5t-64.5 21.5q-16 0 -32.5 -4t-30.5 -11t-25 -16t-16 -19l-2 -5v-310q0 -2 1 -4t5.5 -3.5t14.5 -3t29 -3.5l14 -1l3 -6h-198l3 6l18 1
q26 2 33 5.5t7 9.5v276q0 45 -19.5 66.5t-63.5 21.5q-33 0 -59 -13.5t-48 -33.5v-131v-188q0 -6 8.5 -8.5t41.5 -4.5l14 -1l3 -6h-200z" />
    <glyph glyph-name="n" unicode="n" horiz-adv-x="491" 
d="M16 6l18 1q23 2 32.5 4t9.5 11v290q0 23 -1.5 37.5t-6 23t-12.5 12.5t-21 6l-23 4l1 4l134 35l-3 -86l3 -2q14 12 32.5 28t40 29.5t45.5 23t51 9.5q48 0 75 -28q32 -32 32 -97v-290q0 -2 1 -4t5.5 -3.5t14.5 -3t29 -3.5l14 -1l3 -6h-199l3 6l18 1q26 2 33.5 5.5t7.5 9.5
v276q0 88 -88 88q-35 0 -65 -14.5t-54 -37.5v-130v-184q0 -6 8.5 -8.5t41.5 -4.5l14 -1l3 -6h-200z" />
    <glyph glyph-name="o" unicode="o" horiz-adv-x="485" 
d="M244 -5q31 0 56.5 17t43.5 46t28 67t10 80q0 58 -13 108t-42 79q-17 16 -38 26.5t-48 10.5q-32 0 -58 -17t-44 -45.5t-27.5 -66t-9.5 -77.5q0 -62 14 -113t43 -80q35 -35 85 -35zM243 -13q-48 0 -89 17t-71 47t-47 71t-17 88t17 88.5t47 72t71 48.5t89 18t88.5 -17
t70.5 -47t47 -71t17 -88q0 -48 -17 -89.5t-47 -72t-71 -48t-88 -17.5z" />
    <glyph glyph-name="p" unicode="p" horiz-adv-x="484" 
d="M259 -1q30 0 53.5 15.5t40 42.5t25 63.5t8.5 78.5q0 39 -10 73.5t-28 60t-44 40t-59 14.5q-37 0 -65 -17.5t-50 -41.5v-241q17 -35 52 -61.5t77 -26.5zM0 -247l18 1q23 2 32.5 4t9.5 10v545q0 23 -1.5 37.5t-6 22.5t-12.5 12t-21 6l-23 4l1 4l134 35l-1 -89l2 -2
q31 36 69 62t87 26q37 0 69.5 -15t56.5 -42.5t37.5 -65.5t13.5 -84q0 -56 -19.5 -100t-50.5 -74.5t-69.5 -46.5t-76.5 -16t-67.5 8t-50.5 18h-1v-247q0 -5 8 -8t42 -4l34 -1l3 -6h-220z" />
    <glyph glyph-name="q" unicode="q" horiz-adv-x="478" 
d="M239 32q39 0 66 17.5t49 41.5v235q-17 39 -51.5 66.5t-75.5 27.5q-30 0 -54 -14.5t-40.5 -41t-25.5 -62.5t-9 -78q0 -39 10 -74t28.5 -61t44.5 -41.5t58 -15.5zM271 -247l33 1q34 1 42 4t8 8v308l-2 1q-32 -37 -69.5 -62.5t-86.5 -25.5q-37 0 -69.5 15.5t-56.5 43
t-37.5 66.5t-13.5 85q0 56 19.5 99.5t51 73.5t71.5 45.5t80 15.5q38 0 72 -10.5t59 -26.5h1l45 48h6v-674q0 -8 9.5 -10t32.5 -4l18 -1l3 -6h-219z" />
    <glyph glyph-name="r" unicode="r" horiz-adv-x="346" 
d="M16 6l18 1q23 2 32.5 4t9.5 11v290q0 23 -1.5 37.5t-6 23t-12.5 12.5t-21 6l-23 4l1 4l134 35l-3 -166h1q20 78 53 123t81 45q26 0 42.5 -15.5t16.5 -35.5q0 -18 -12.5 -34t-35.5 -16q-19 0 -34.5 14.5t-17.5 46.5q-32 -7 -51.5 -43t-40.5 -113v-220q0 -6 7 -9t40 -4
l32 -1l3 -6h-215z" />
    <glyph glyph-name="s" unicode="s" horiz-adv-x="347" 
d="M160 -13q-38 0 -68.5 6t-58.5 17l-11 118l6 1l21 -45q20 -42 50.5 -65t66.5 -23q45 0 71.5 25t26.5 63q0 41 -29 65t-82 41q-21 7 -41.5 17t-37 24t-27 34t-10.5 48q0 27 11 49.5t30 39t44.5 25.5t54.5 9q49 0 88 -18l32 11l5 -111l-6 -1l-51 82q-11 9 -28 18.5t-41 9.5
q-41 0 -62.5 -21t-21.5 -56q0 -19 7 -33t20.5 -24.5t32 -19t41.5 -16.5q25 -9 48.5 -19t41.5 -25t29 -36.5t11 -53.5q0 -27 -11.5 -52t-33 -43.5t-51.5 -29.5t-67 -11z" />
    <glyph glyph-name="t" unicode="t" horiz-adv-x="307" 
d="M172 -13q-18 0 -35 4.5t-30 16t-20.5 30t-7.5 46.5l6 302l-78 1l7 21l58 19l56 86l29 -1l-1 -89h143l-14 -35h-129l-7 -296q-1 -32 17 -48t47 -16t49 12.5t37 26.5l5 -3q-30 -30 -61.5 -53.5t-70.5 -23.5z" />
    <glyph glyph-name="u" unicode="u" horiz-adv-x="466" 
d="M340 75h-1q-14 -13 -32 -28t-39 -28.5t-45 -22.5t-51 -9q-49 0 -78 29q-17 17 -23.5 41t-6.5 55v291q0 2 -1 4t-5.5 3.5t-15 3t-29.5 2.5l-14 1l-3 6h138v-298q0 -88 89 -88q35 0 63 13.5t51 34.5v116v164q0 31 -9.5 40t-40.5 11l-14 1l-3 6h138v-361q0 -17 4.5 -23.5
t20.5 -8.5l39 -6l-1 -5l-133 -35z" />
    <glyph glyph-name="v" unicode="v" horiz-adv-x="455" 
d="M72 353q-8 20 -13.5 32t-11 18.5t-12.5 8.5t-19 3l-19 1l-3 6h203l-2 -6l-17 -1q-29 -2 -34 -13t6 -39l110 -271l81 210q14 36 19 57t1.5 33t-17.5 16.5t-39 6.5l-14 1l-3 6h167l-3 -6l-10 -1q-17 -1 -28 -5.5t-20 -17.5t-19.5 -37t-26.5 -64l-117 -301h-10z" />
    <glyph glyph-name="w" unicode="w" horiz-adv-x="708" 
d="M76 342q-9 24 -15 38t-12 21.5t-14 10t-20 3.5l-18 1l-2 6h205l-3 -6l-16 -1q-30 -2 -37 -11t4 -37l106 -277l94 220l-19 48q-7 18 -13 29t-12 17t-14 8t-21 3l-16 1l-4 6h203l-2 -6l-17 -1q-29 -2 -34 -12t5 -36l118 -279l73 209q12 35 17 56.5t0.5 34.5t-18 19t-39.5 8
l-13 1l-3 6h166l-3 -6l-9 -1q-17 -1 -28 -6t-20 -18.5t-18.5 -37.5t-23.5 -65l-104 -298h-11l-134 309l-131 -309h-11z" />
    <glyph glyph-name="x" unicode="x" horiz-adv-x="443" 
d="M3 6l24 3q23 3 44 19.5t53 62.5l69 101l-111 164q-21 30 -34.5 43.5t-33.5 15.5l-13 1l-3 6h201l-3 -6l-21 -2q-23 -2 -25.5 -15t14.5 -39l75 -109h1l62 95q22 33 19.5 49.5t-31.5 18.5l-24 2l-3 6h165l-3 -6l-23 -2q-23 -2 -44.5 -19.5t-53.5 -65.5l-59 -86l122 -177
q20 -29 33.5 -43t33.5 -16l14 -1l3 -6h-202l3 6l19 2q46 5 10 55l-83 122h-1l-71 -110q-21 -32 -20 -48.5t28 -18.5l28 -2l3 -6h-165z" />
    <glyph glyph-name="y" unicode="y" horiz-adv-x="448" 
d="M80 -256q-24 0 -40.5 13t-16.5 33q0 18 13 31.5t32 13.5q22 0 35 -14t17 -34q27 5 43 35t36 89l27 82l-1 1l-153 359q-8 20 -13.5 32t-11.5 18.5t-13 8.5t-19 3l-19 1l-3 6h203l-2 -6l-17 -1q-29 -2 -33.5 -13t6.5 -39l113 -271l78 212q12 35 17 56t0.5 32.5t-18.5 16
t-39 6.5l-14 1l-3 6h169l-3 -6l-13 -1q-17 -1 -27.5 -5.5t-19.5 -17.5t-18 -37t-24 -63l-111 -296l-33 -103q-23 -75 -51 -112t-73 -37z" />
    <glyph glyph-name="z" unicode="z" horiz-adv-x="409" 
d="M19 5l269 408q-19 1 -36 1h-48q-34 0 -57 -7t-39 -21.5t-27.5 -36t-23.5 -51.5l-9 -20h-5l3 144h326v-5l-271 -407l93 -2q34 0 59.5 8t45.5 23t36 36t31 47l14 23h4l-33 -145h-332v5z" />
    <glyph glyph-name="braceleft" unicode="{" horiz-adv-x="291" 
d="M280 -267q-42 2 -77.5 13.5t-62 30.5t-41 46t-14.5 61q0 32 5.5 60.5t12.5 55.5t12.5 52.5t5.5 50.5q0 22 -9.5 36.5t-28 24t-45.5 14.5t-62 8l-2 4l2 4q28 3 54 8t46.5 14.5t32.5 24.5t12 37q0 26 -5.5 51t-12.5 52t-12.5 55.5t-5.5 60.5q0 34 14.5 60.5t41 46t62 30.5
t77.5 13l2 -6q-79 -10 -110 -35.5t-31 -73.5q0 -26 6 -52t13 -53t13 -55.5t6 -58.5q0 -51 -43.5 -81t-119.5 -41v-1q76 -11 119.5 -41t43.5 -81q0 -30 -6 -58.5t-13 -55.5t-13 -53t-6 -52q0 -48 31 -74t110 -36l-2 -6v0z" />
    <glyph glyph-name="bar" unicode="|" horiz-adv-x="153" 
d="M72 630h9v-877h-9v877z" />
    <glyph glyph-name="braceright" unicode="}" horiz-adv-x="291" 
d="M-6 -261q40 5 67 14t43.5 22.5t23.5 31.5t7 42q0 26 -6 52t-13 53t-13 55.5t-6 58.5q0 51 43.5 81t119.5 41v1q-76 11 -119.5 41t-43.5 81q0 30 6 58.5t13 55.5t13 53t6 52q0 24 -7 42t-23.5 31t-43.5 22t-67 14l2 6q42 -2 77.5 -13t62 -30.5t41 -46t14.5 -60.5
q0 -32 -5.5 -60.5t-12.5 -55.5t-12.5 -52t-5.5 -51q0 -22 12.5 -37t32.5 -24.5t46 -14.5t54 -8l2 -4l-2 -4q-35 -3 -62 -8t-45.5 -14.5t-28 -24t-9.5 -36.5q0 -25 5.5 -50.5t12.5 -52.5t12.5 -55.5t5.5 -60.5q0 -34 -14.5 -61t-41 -46t-62 -30.5t-77.5 -13.5z" />
    <glyph glyph-name="asciitilde" unicode="~" 
d="M259 150q-19 0 -41.5 9.5t-45 20.5t-42.5 20.5t-35 9.5q-18 0 -30.5 -8.5t-15.5 -43.5h-5q5 52 20.5 75t47.5 23q19 0 41.5 -9t44.5 -20.5t42.5 -20.5t35.5 -9q17 0 30 9.5t16 41.5h5q-5 -51 -20.5 -74.5t-47.5 -23.5z" />
    <glyph glyph-name="nonbreakingspace" unicode="&#xa0;" horiz-adv-x="160" 
 />
    <glyph glyph-name="exclamdown" unicode="&#xa1;" horiz-adv-x="235" 
d="M117 531q-23 0 -37.5 15t-14.5 35t14.5 36t37.5 16t38 -16t15 -36t-15 -35t-38 -15zM116 -21q-16 0 -24.5 5t-12 13.5t-3.5 18.5t1 20l36 406q0 3 4 3t4 -3l36 -406q1 -10 1 -20t-4 -18.5t-12 -13.5t-24 -5h-2v0z" />
    <glyph glyph-name="cent" unicode="&#xa2;" horiz-adv-x="406" 
d="M297 413q-8 6 -21.5 11t-32.5 5q-30 0 -57 -14.5t-47 -40.5t-32 -61.5t-12 -78.5q0 -70 29 -118.5t74 -68.5zM163 -83q8 28 14 50.5t6 23.5q-36 6 -66 25t-51.5 47t-34 63.5t-12.5 75.5q0 49 16.5 91.5t45.5 74.5t70 50.5t90 18.5q31 0 60 -8l47 175h10l-48 -177
q32 -10 51 -28t19 -43q0 -19 -14 -31.5t-31 -12.5q-18 0 -30 12t-14 32l-84 -312q11 -3 22 -5t23 -2q46 0 76.5 17.5t58.5 62.5l8 -3q-33 -59 -75 -93t-103 -34q-6 0 -12 0.5t-13 1.5l-39 -146h-10z" />
    <glyph glyph-name="sterling" unicode="&#xa3;" horiz-adv-x="518" 
d="M172 56q-23 14 -46 24t-48 10q-26 0 -42.5 -12t-16.5 -35q0 -22 16 -34t41 -12q26 0 51.5 16.5t44.5 42.5zM60 291l3 10h103q-4 19 -7 39t-3 43q0 49 16.5 94t47 79.5t73 55t94.5 20.5q48 0 77 -18.5t29 -51.5q0 -16 -13 -30t-32 -14q-16 0 -25.5 8.5t-13 20.5t-1.5 26
t10 25q-8 6 -23.5 12.5t-36.5 6.5q-25 0 -49 -10t-42.5 -29.5t-29.5 -48t-11 -64.5q0 -42 7.5 -81.5t12.5 -82.5h128l3 -10h-129q2 -16 3 -31.5t1 -32.5q0 -32 -11.5 -68.5t-31.5 -70.5q42 -13 84.5 -26t86.5 -13q21 0 38.5 5.5t30 19.5t21 38.5t12.5 61.5h8
q-1 -42 -12.5 -76.5t-30.5 -58.5t-43.5 -37t-52.5 -13q-27 0 -50.5 5.5t-44 14.5t-39 20t-35.5 21q-23 -27 -50 -44t-56 -17q-30 0 -48 15t-18 39q0 29 23 47.5t70 18.5q22 0 44.5 -4.5t45.5 -11.5q11 25 11 50q0 38 -12 73t-23 75h-109z" />
    <glyph glyph-name="currency" unicode="&#xa4;" horiz-adv-x="478" 
d="M289 -14q-41 0 -78.5 16.5t-68 47.5t-51.5 75t-29 98h-63l3 10h58q-3 33 -3 60q0 15 1 30.5t3 29.5h-62l3 10h61q10 62 35.5 112.5t61 86t78.5 54.5t89 19q61 0 98 -22.5t37 -59.5q0 -19 -14 -32t-32 -13q-19 0 -29.5 9.5t-13.5 23t0.5 27.5t13.5 22q-6 11 -22 23t-45 12
q-35 0 -67 -20t-56.5 -55t-41.5 -83t-22 -104h199l3 -10h-203q0 -9 -0.5 -19t-0.5 -20q0 -39 6 -81h195l3 -10h-195q8 -43 25.5 -78t41 -60t52.5 -38t61 -13q49 0 85 22t63 70l7 -5q-33 -59 -77 -97t-109 -38z" />
    <glyph glyph-name="yen" unicode="&#xa5;" horiz-adv-x="595" 
d="M162 6l50 4q26 2 37 6.5t11 9.5v139h-189l3 10h186v120h-186l-3 10h184l-138 238q-12 20 -21 33.5t-18.5 22t-21.5 13t-29 5.5l-28 2l-3 6h264l-3 -6l-30 -1q-40 -2 -44 -16.5t19 -54.5l134 -232h2l92 176q20 38 28.5 61.5t5 36.5t-19.5 19t-45 9l-25 2l-3 6h220l-3 -6
l-22 -2q-19 -1 -32.5 -4.5t-26 -15.5t-27.5 -35.5t-37 -66.5l-101 -190h181l-3 -10h-180v-120h180l3 -10h-183v-142q0 -5 9.5 -8t48.5 -6l39 -3l3 -6h-281z" />
    <glyph glyph-name="section" unicode="&#xa7;" horiz-adv-x="386" 
d="M280 164q20 12 35.5 32.5t15.5 45.5q0 21 -8.5 38t-23.5 31t-35 26.5t-43 25.5q-35 20 -64 35.5t-49 34.5q-20 -11 -36.5 -31.5t-16.5 -45.5q0 -21 8.5 -37.5t23.5 -31t35 -27t43 -25.5q35 -20 64 -36t51 -35zM171 -43q-54 0 -88 20.5t-34 49.5q0 14 9.5 27t26.5 13
q15 0 24 -7.5t12.5 -19t1 -24t-10.5 -22.5q11 -14 29.5 -21.5t40.5 -7.5q21 0 37.5 8.5t27.5 21.5t17 29t6 31q0 19 -10 34.5t-27 29t-39.5 26.5t-47.5 26q-25 14 -49.5 29.5t-43.5 33.5t-30.5 39.5t-11.5 47.5q0 42 27 70.5t64 45.5q-30 33 -30 74q0 24 10 47.5t28.5 41.5
t44.5 29t58 11q54 0 83 -20.5t29 -49.5q0 -14 -11.5 -27t-28.5 -13q-15 0 -23.5 7.5t-12 19t-1 24t10.5 22.5q-11 14 -23 21.5t-34 7.5q-21 0 -37.5 -8.5t-27 -21.5t-16 -29t-5.5 -31q0 -19 10 -34.5t27 -29t39.5 -26t47.5 -26.5t49.5 -29t43.5 -32.5t31 -38.5t12 -48
q0 -41 -27 -70t-64 -49q30 -33 30 -74q0 -24 -10.5 -47t-29.5 -41t-45.5 -29t-58.5 -11z" />
    <glyph glyph-name="dieresis" unicode="&#xa8;" 
d="M265 509q-24 0 -35 16t-11 29q0 7 2.5 15.5t8.5 16t14.5 12.5t20.5 5t20.5 -5t14.5 -12.5t8.5 -16t2.5 -15.5q0 -13 -11 -29t-35 -16zM105 509q-24 0 -35 16t-11 29q0 7 2.5 15.5t8.5 16t14.5 12.5t20.5 5t20.5 -5t14.5 -12.5t8.5 -16t2.5 -15.5q0 -13 -11 -29t-35 -16z
" />
    <glyph glyph-name="copyright" unicode="&#xa9;" horiz-adv-x="704" 
d="M361 114q-45 0 -83.5 14.5t-66 40t-43 62t-15.5 79.5t15 79t43 62.5t66.5 41.5t85.5 15q32 0 59.5 -8t44.5 -18l33 15l5 -110h-3l-51 89q-12 9 -35 17.5t-55 8.5q-36 0 -64.5 -14.5t-49 -39.5t-31 -59.5t-10.5 -73.5q0 -43 12 -79t33.5 -61.5t50.5 -40t63 -14.5
q52 0 81 24t54 68l15 25h3l-22 -95l-20 -5q-8 -4 -21 -8t-28.5 -7.5t-32.5 -5.5t-33 -2zM352 -5q66 0 123.5 25t100.5 68.5t68 101t25 123.5t-25 124t-68 101.5t-100.5 68.5t-123.5 25t-123.5 -25t-100.5 -68.5t-68 -101.5t-25 -124t25 -123.5t68 -101t100.5 -68.5
t123.5 -25zM352 -14q-68 0 -127.5 25.5t-104 70t-70 104t-25.5 127.5t25.5 127.5t70 104t104 70.5t127.5 26t127.5 -26t104 -70.5t70 -104t25.5 -127.5t-25.5 -127.5t-70 -104t-104 -70t-127.5 -25.5z" />
    <glyph glyph-name="ordfeminine" unicode="&#xaa;" horiz-adv-x="307" 
d="M131 321q18 0 35.5 10.5t32.5 25.5l4 117q-43 -10 -68 -22t-38 -25t-17 -25.5t-4 -24.5q0 -26 14.5 -41t40.5 -15zM92 286q-34 0 -54.5 21.5t-20.5 49.5q0 17 9 34t31 33t57.5 31t88.5 28l1 33q1 30 -6 49t-18.5 30t-26 15t-28.5 4q-25 0 -41.5 -10t-16.5 -16
q0 -5 9 -16.5t9 -23.5t-10 -21.5t-25 -9.5t-24.5 9t-9.5 23t15 29.5t37.5 28t49 20.5t50.5 8q42 0 69 -23t25 -80l-7 -174q-1 -38 25 -38q10 0 19 6.5t17 16.5l4 -2q-5 -7 -12 -17t-16 -18t-19.5 -14t-23.5 -6q-21 0 -34.5 15.5t-15.5 46.5v1q-25 -29 -52 -46t-55 -17z" />
    <glyph glyph-name="guillemotleft" unicode="&#xab;" horiz-adv-x="402" 
d="M11 219v6l197 155l3 -3l-123 -155l123 -156l-3 -3zM183 219v6l202 171l3 -3l-128 -171l128 -171l-3 -3z" />
    <glyph glyph-name="registered" unicode="&#xae;" horiz-adv-x="704" 
d="M342 320q41 0 64.5 22t23.5 64t-28 66t-82 21l-30 -1v-161q14 -5 26 -8t26 -3zM183 132l30 3q9 1 19 4.5t10 6.5v339q0 3 -5.5 4.5t-28.5 3.5l-24 2l-2 6h154q71 0 108 -25t37 -72q0 -34 -26.5 -59.5t-66.5 -33.5l87 -133q9 -14 17 -22t15.5 -12.5t15.5 -6.5t19 -4l7 -1
l2 -6h-99l-4 8l-110 177q-12 2 -24 4.5t-24 6.5v-179q0 -3 12 -5.5t23 -3.5l23 -2l2 -6h-169zM352 -5q66 0 123.5 25t100.5 68.5t68 101t25 123.5t-25 124t-68 101.5t-100.5 68.5t-123.5 25t-123.5 -25t-100.5 -68.5t-68 -101.5t-25 -124t25 -123.5t68 -101t100.5 -68.5
t123.5 -25zM352 -14q-68 0 -127.5 25.5t-104 70t-70 104t-25.5 127.5t25.5 127.5t70 104t104 70.5t127.5 26t127.5 -26t104 -70.5t70 -104t25.5 -127.5t-25.5 -127.5t-70 -104t-104 -70t-127.5 -25.5z" />
    <glyph glyph-name="macron" unicode="&#xaf;" horiz-adv-x="369" 
d="M62 546h252l-7 -25h-252z" />
    <glyph glyph-name="degree" unicode="&#xb0;" horiz-adv-x="284" 
d="M142 397q52 0 83 33.5t31 82.5q0 24 -8 45.5t-23 37.5t-36 25.5t-47 9.5t-46.5 -9.5t-35 -25.5t-22.5 -37.5t-8 -45.5q0 -49 30 -82.5t82 -33.5zM142 387q-28 0 -51 10t-39.5 27.5t-25 40.5t-8.5 48q0 26 8.5 49t24.5 40.5t39 28t52 10.5t52 -10.5t39 -28t24.5 -40.5
t8.5 -49q0 -25 -8.5 -48t-24.5 -40.5t-39 -27.5t-52 -10z" />
    <glyph glyph-name="plusminus" unicode="&#xb1;" horiz-adv-x="315" 
d="M43 7l34 1q24 1 35.5 4t11.5 12v422q0 6 -7.5 9t-42.5 5l-30 1l-3 7h234l-3 -7l-34 -1q-24 -1 -35.5 -4t-11.5 -12v-422q0 -6 7.5 -9t42.5 -5l30 -1l3 -7h-234z" />
    <glyph glyph-name="acute" unicode="&#xb4;" 
d="M252 678h79l-184 -187h-4z" />
    <glyph glyph-name="paragraph" unicode="&#xb6;" horiz-adv-x="414" 
d="M354 282q-18 -2 -46 -3.5t-50 -1.5q-109 0 -171 45.5t-62 132.5q0 84 58.5 127t174.5 43h106v-657h-10v314z" />
    <glyph glyph-name="periodcentered" unicode="&#xb7;" horiz-adv-x="185" 
d="M93 164q-23 0 -38.5 15.5t-15.5 36.5q0 20 15.5 35.5t38.5 15.5t37.5 -15.5t14.5 -35.5q0 -21 -14.5 -36.5t-37.5 -15.5z" />
    <glyph glyph-name="cedilla" unicode="&#xb8;" 
d="M90 -251q66 11 106.5 32t40.5 56q0 29 -22 41.5t-55 12.5q-20 0 -37.5 -3t-30.5 -8v7l97 111h11l-58 -67q29 5 54.5 2.5t45 -12t31 -25t11.5 -35.5q0 -28 -17 -48t-44 -33.5t-61.5 -22t-69.5 -12.5z" />
    <glyph glyph-name="ordmasculine" unicode="&#xba;" horiz-adv-x="376" 
d="M189 291q24 0 43 14t33 37t21.5 53t7.5 62q0 45 -9.5 84t-29.5 59q-15 17 -32.5 23t-35.5 6q-25 0 -45 -13.5t-33.5 -36.5t-20.5 -52.5t-7 -61.5q0 -47 9.5 -86t32.5 -62q14 -14 31.5 -20t34.5 -6zM188 284q-38 0 -70.5 13.5t-56 37t-37 55t-13.5 67.5q0 37 13.5 69.5
t37.5 57t56.5 38.5t69.5 14q38 0 70 -13.5t55.5 -37.5t37 -56t13.5 -68q0 -37 -13.5 -69t-37 -56t-55.5 -38t-70 -14z" />
    <glyph glyph-name="guillemotright" unicode="&#xbb;" horiz-adv-x="406" 
d="M192 66l123 156l-123 155l3 3l197 -155v-6l-197 -156zM15 51l128 171l-128 171l3 3l202 -171v-6l-202 -171z" />
    <glyph glyph-name="questiondown" unicode="&#xbf;" horiz-adv-x="299" 
d="M156 539q-23 0 -37.5 15t-14.5 35t14.5 35.5t37.5 15.5t38 -15.5t15 -35.5t-15 -35t-38 -15zM207 -14q-40 0 -73.5 16t-57.5 42t-37 59.5t-13 68.5q0 26 4.5 43t15.5 30t29.5 23t45.5 23q18 8 33 15t26.5 15t17.5 17.5t6 23.5q0 22 -16 44.5t-36 42.5h8q13 -10 27 -25
t26 -31.5t20 -32t8 -27.5q0 -20 -5 -34t-17 -25.5t-31.5 -21.5t-48.5 -23q-55 -24 -78 -39.5t-23 -38.5q0 -15 7.5 -32t25 -31.5t47 -24.5t73.5 -10q23 0 41.5 3t31.5 7q10 -13 10 -42q0 -16 -14 -25.5t-53 -9.5z" />
    <glyph glyph-name="Agrave" unicode="&#xc0;" horiz-adv-x="625" 
d="M184 274l-48 -135q-14 -41 -20.5 -65.5t-1.5 -38t23 -19t52 -8.5l21 -2l3 -6h-217l3 6l16 2q23 3 38 9.5t28.5 26.5t29.5 59t41 108l124 345l-10 28q19 7 31 20.5t20 31.5h9l182 -531q10 -30 17.5 -48t16.5 -28.5t20 -15t29 -5.5l28 -2l3 -6h-262l3 6l32 2q30 2 41 17.5
t0 50.5l-66 198h-186zM366 284l-3.5 11t-9.5 29t-13.5 41t-15.5 47q-18 56 -43 128h-1l-92 -256h178zM153 845h79l109 -187h-4z" />
    <glyph glyph-name="Aacute" unicode="&#xc1;" horiz-adv-x="625" 
d="M184 274l-48 -135q-14 -41 -20.5 -65.5t-1.5 -38t23 -19t52 -8.5l21 -2l3 -6h-217l3 6l16 2q23 3 38 9.5t28.5 26.5t29.5 59t41 108l124 345l-10 28q19 7 31 20.5t20 31.5h9l182 -531q10 -30 17.5 -48t16.5 -28.5t20 -15t29 -5.5l28 -2l3 -6h-262l3 6l32 2q30 2 41 17.5
t0 50.5l-66 198h-186zM366 284l-3.5 11t-9.5 29t-13.5 41t-15.5 47q-18 56 -43 128h-1l-92 -256h178zM386 845h79l-184 -187h-4z" />
    <glyph glyph-name="Acircumflex" unicode="&#xc2;" horiz-adv-x="625" 
d="M184 274l-48 -135q-14 -41 -20.5 -65.5t-1.5 -38t23 -19t52 -8.5l21 -2l3 -6h-217l3 6l16 2q23 3 38 9.5t28.5 26.5t29.5 59t41 108l124 345l-10 28q19 7 31 20.5t20 31.5h9l182 -531q10 -30 17.5 -48t16.5 -28.5t20 -15t29 -5.5l28 -2l3 -6h-262l3 6l32 2q30 2 41 17.5
t0 50.5l-66 198h-186zM366 284l-3.5 11t-9.5 29t-13.5 41t-15.5 47q-18 56 -43 128h-1l-92 -256h178zM321 834h2l134 -187h-4l-130 112h-2l-130 -112h-4z" />
    <glyph glyph-name="Atilde" unicode="&#xc3;" horiz-adv-x="625" 
d="M184 274l-48 -135q-14 -41 -20.5 -65.5t-1.5 -38t23 -19t52 -8.5l21 -2l3 -6h-217l3 6l16 2q23 3 38 9.5t28.5 26.5t29.5 59t41 108l124 345l-10 28q19 7 31 20.5t20 31.5h9l182 -531q10 -30 17.5 -48t16.5 -28.5t20 -15t29 -5.5l28 -2l3 -6h-262l3 6l32 2q30 2 41 17.5
t0 50.5l-66 198h-186zM366 284l-3.5 11t-9.5 29t-13.5 41t-15.5 47q-18 56 -43 128h-1l-92 -256h178zM388 664q-19 0 -41.5 9.5t-45 20.5t-42.5 20.5t-35 9.5q-18 0 -30.5 -8.5t-15.5 -43.5h-5q5 52 20.5 75t47.5 23q19 0 41.5 -9t44.5 -20.5t42.5 -20.5t35.5 -9
q17 0 30 9.5t16 41.5h5q-5 -51 -20.5 -74.5t-47.5 -23.5z" />
    <glyph glyph-name="Adieresis" unicode="&#xc4;" horiz-adv-x="625" 
d="M184 274l-48 -135q-14 -41 -20.5 -65.5t-1.5 -38t23 -19t52 -8.5l21 -2l3 -6h-217l3 6l16 2q23 3 38 9.5t28.5 26.5t29.5 59t41 108l124 345l-10 28q19 7 31 20.5t20 31.5h9l182 -531q10 -30 17.5 -48t16.5 -28.5t20 -15t29 -5.5l28 -2l3 -6h-262l3 6l32 2q30 2 41 17.5
t0 50.5l-66 198h-186zM366 284l-3.5 11t-9.5 29t-13.5 41t-15.5 47q-18 56 -43 128h-1l-92 -256h178zM394 676q-24 0 -35 16t-11 29q0 7 2.5 15.5t8.5 16t14.5 12.5t20.5 5t20.5 -5t14.5 -12.5t8.5 -16t2.5 -15.5q0 -13 -11 -29t-35 -16zM234 676q-24 0 -35 16t-11 29
q0 7 2.5 15.5t8.5 16t14.5 12.5t20.5 5t20.5 -5t14.5 -12.5t8.5 -16t2.5 -15.5q0 -13 -11 -29t-35 -16z" />
    <glyph glyph-name="Aring" unicode="&#xc5;" horiz-adv-x="625" 
d="M313 623q37 0 58 24t21 57q0 32 -21 56.5t-58 24.5t-58 -24.5t-21 -56.5q0 -33 21 -57t58 -24zM184 272l-48 -133q-14 -41 -20.5 -65.5t-1.5 -38t23 -19t52 -8.5l21 -2l3 -6h-217l3 6l16 2q23 3 38 9.5t28.5 26.5t29.5 59t41 108l147 405q-36 6 -55.5 31t-19.5 58
q0 36 23.5 62.5t65.5 26.5t65.5 -26.5t23.5 -62.5q0 -32 -18 -56.5t-51 -31.5l7.5 -22t20 -58t28.5 -82t32 -94q39 -113 87 -256q10 -30 17.5 -48t16.5 -28.5t20 -15t29 -5.5l28 -2l3 -6h-262l3 6l32 2q30 2 41 17.5t0 50.5l-65 196h-187zM366 284l-3.5 11t-9.5 29t-13.5 41
t-15.5 47q-18 56 -43 128h-1l-92 -256h178z" />
    <glyph glyph-name="AE" unicode="&#xc6;" horiz-adv-x="848" 
d="M397 284v317h-2l-185 -317h187zM-50 6l39 4q14 2 27 8t29 23t36.5 47t48.5 78l243 415q5 8 5 13.5t-6.5 9.5t-21.5 7t-42 4l-39 2l-3 8h490l19 -178h-5l-6 14q-14 39 -26.5 68t-30 48.5t-42.5 29t-64 9.5h-124v-284h66q34 2 56 5.5t36 12.5t23 24t16 39l5 14l6 -1
l-20 -202l-6 2l-1 12q-2 27 -7.5 43t-18.5 24t-36 11t-60 4l-59 2v-307l120 -5q45 1 77.5 14t56.5 35.5t41.5 52.5t31.5 64l6 14l6 -1l-41 -189h-479l3 7l50 4q26 2 37 6.5t11 9.5v245h-194l-69 -117q-23 -41 -35 -68t-12 -43.5t13.5 -24.5t41.5 -11l32 -3l3 -5h-230z" />
    <glyph glyph-name="Ccedilla" unicode="&#xc7;" horiz-adv-x="671" 
d="M374 -15q-76 0 -139.5 23t-109.5 66t-72 103t-26 133q0 72 25.5 132.5t72 105t111.5 69t144 24.5q52 0 97.5 -14.5t73.5 -29.5l54 26l8 -184h-6l-83 152q-20 16 -58.5 27.5t-86.5 11.5q-63 0 -112 -24.5t-83 -66.5t-51.5 -99t-17.5 -122q0 -72 19.5 -131.5t54.5 -101.5
t83 -65.5t105 -23.5h8l2 2h11l-2 -1q40 2 70 13t54.5 29.5t44.5 45t39 59.5l25 42h6l-36 -152l-34 -7q-13 -7 -33 -14t-44 -12.5t-49.5 -9.5t-51.5 -5l-47 -55q29 5 54.5 2.5t45 -12t31 -25t11.5 -35.5q0 -28 -17 -48t-44 -33.5t-61.5 -22t-69.5 -12.5l-2 4q66 11 106.5 32
t40.5 56q0 29 -22 41.5t-55 12.5q-20 0 -37.5 -3t-30.5 -8v7l86 98h-2z" />
    <glyph glyph-name="Egrave" unicode="&#xc8;" horiz-adv-x="577" 
d="M25 6l36 4q26 2 38 6.5t12 9.5v576q0 5 -9.5 8t-48.5 6l-27 3l-3 6h462l19 -178h-5l-6 14q-14 39 -28.5 68t-33.5 48.5t-45.5 29t-65.5 9.5h-129v-284h81q34 2 56 5.5t36 12t23 24t16 39.5l5 14l6 -1l-20 -202l-6 1l-1 13q-2 27 -7.5 42.5t-18.5 24t-36 11.5t-60 4l-74 2
v-308l145 -4q45 1 76 14t53 35.5t38 52.5t30 64l6 14l6 -1l-41 -189h-482zM142 845h79l109 -187h-4z" />
    <glyph glyph-name="Eacute" unicode="&#xc9;" horiz-adv-x="577" 
d="M25 6l36 4q26 2 38 6.5t12 9.5v576q0 5 -9.5 8t-48.5 6l-27 3l-3 6h462l19 -178h-5l-6 14q-14 39 -28.5 68t-33.5 48.5t-45.5 29t-65.5 9.5h-129v-284h81q34 2 56 5.5t36 12t23 24t16 39.5l5 14l6 -1l-20 -202l-6 1l-1 13q-2 27 -7.5 42.5t-18.5 24t-36 11.5t-60 4l-74 2
v-308l145 -4q45 1 76 14t53 35.5t38 52.5t30 64l6 14l6 -1l-41 -189h-482zM372 845h79l-184 -187h-4z" />
    <glyph glyph-name="Ecircumflex" unicode="&#xca;" horiz-adv-x="577" 
d="M25 6l36 4q26 2 38 6.5t12 9.5v576q0 5 -9.5 8t-48.5 6l-27 3l-3 6h462l19 -178h-5l-6 14q-14 39 -28.5 68t-33.5 48.5t-45.5 29t-65.5 9.5h-129v-284h81q34 2 56 5.5t36 12t23 24t16 39.5l5 14l6 -1l-20 -202l-6 1l-1 13q-2 27 -7.5 42.5t-18.5 24t-36 11.5t-60 4l-74 2
v-308l145 -4q45 1 76 14t53 35.5t38 52.5t30 64l6 14l6 -1l-41 -189h-482zM286 834h2l134 -187h-4l-130 112h-2l-130 -112h-4z" />
    <glyph glyph-name="Edieresis" unicode="&#xcb;" horiz-adv-x="577" 
d="M25 6l36 4q26 2 38 6.5t12 9.5v576q0 5 -9.5 8t-48.5 6l-27 3l-3 6h462l19 -178h-5l-6 14q-14 39 -28.5 68t-33.5 48.5t-45.5 29t-65.5 9.5h-129v-284h81q34 2 56 5.5t36 12t23 24t16 39.5l5 14l6 -1l-20 -202l-6 1l-1 13q-2 27 -7.5 42.5t-18.5 24t-36 11.5t-60 4l-74 2
v-308l145 -4q45 1 76 14t53 35.5t38 52.5t30 64l6 14l6 -1l-41 -189h-482zM362 676q-24 0 -35 16t-11 29q0 7 2.5 15.5t8.5 16t14.5 12.5t20.5 5t20.5 -5t14.5 -12.5t8.5 -16t2.5 -15.5q0 -13 -11 -29t-35 -16zM202 676q-24 0 -35 16t-11 29q0 7 2.5 15.5t8.5 16t14.5 12.5
t20.5 5t20.5 -5t14.5 -12.5t8.5 -16t2.5 -15.5q0 -13 -11 -29t-35 -16z" />
    <glyph glyph-name="Igrave" unicode="&#xcc;" horiz-adv-x="322" 
d="M33 6l40 4q26 2 37 6.5t11 9.5v576q0 5 -9.5 8t-48.5 6l-29 3l-3 6h261l-3 -6l-40 -4q-26 -2 -37 -6.5t-11 -9.5v-576q0 -5 9.5 -8t48.5 -6l29 -3l3 -6h-261zM14 845h79l109 -187h-4z" />
    <glyph glyph-name="Iacute" unicode="&#xcd;" horiz-adv-x="322" 
d="M33 6l40 4q26 2 37 6.5t11 9.5v576q0 5 -9.5 8t-48.5 6l-29 3l-3 6h261l-3 -6l-40 -4q-26 -2 -37 -6.5t-11 -9.5v-576q0 -5 9.5 -8t48.5 -6l29 -3l3 -6h-261zM227 845h79l-184 -187h-4z" />
    <glyph glyph-name="Icircumflex" unicode="&#xce;" horiz-adv-x="322" 
d="M33 6l40 4q26 2 37 6.5t11 9.5v576q0 5 -9.5 8t-48.5 6l-29 3l-3 6h261l-3 -6l-40 -4q-26 -2 -37 -6.5t-11 -9.5v-576q0 -5 9.5 -8t48.5 -6l29 -3l3 -6h-261zM161 834h2l134 -187h-4l-130 112h-2l-130 -112h-4z" />
    <glyph glyph-name="Idieresis" unicode="&#xcf;" horiz-adv-x="322" 
d="M33 6l40 4q26 2 37 6.5t11 9.5v576q0 5 -9.5 8t-48.5 6l-29 3l-3 6h261l-3 -6l-40 -4q-26 -2 -37 -6.5t-11 -9.5v-576q0 -5 9.5 -8t48.5 -6l29 -3l3 -6h-261zM243 676q-24 0 -35 16t-11 29q0 7 2.5 15.5t8.5 16t14.5 12.5t20.5 5t20.5 -5t14.5 -12.5t8.5 -16t2.5 -15.5
q0 -13 -11 -29t-35 -16zM83 676q-24 0 -35 16t-11 29q0 7 2.5 15.5t8.5 16t14.5 12.5t20.5 5t20.5 -5t14.5 -12.5t8.5 -16t2.5 -15.5q0 -13 -11 -29t-35 -16z" />
    <glyph glyph-name="Eth" unicode="&#xd0;" horiz-adv-x="666" 
d="M345 320l3 -12h-157v-279l75 -18q69 1 120.5 25.5t85.5 65t51 93t17 108.5q0 64 -16.5 121t-51.5 99.5t-88.5 67.5t-127.5 25h-65v-296h154zM25 308l3 12h83v282q0 9 -58 14l-32 3l-3 6l253 3q87 1 153 -21t111 -61.5t68 -95.5t23 -124q0 -70 -25.5 -130t-75 -103.5
t-120.5 -68t-163 -24.5h-225l3 6l43 4q26 2 37 6.5t11 9.5v282h-86z" />
    <glyph glyph-name="Ntilde" unicode="&#xd1;" horiz-adv-x="684" 
d="M129 560h-1l1 -519q0 -11 18.5 -20t64.5 -13l19 -2l3 -6h-210l3 6l20 2q32 3 51.5 12t19.5 23l2 526q-11 12 -32 27.5t-61 21.5l-13 2l-3 6h168l393 -501h1l-1 460q0 11 -18.5 19t-64.5 13l-19 2l-3 6h210l-3 -6l-20 -2q-32 -3 -51.5 -11.5t-19.5 -22.5l-2 -588h-7z
M436 664q-19 0 -41.5 9.5t-45 20.5t-42.5 20.5t-35 9.5q-18 0 -30.5 -8.5t-15.5 -43.5h-5q5 52 20.5 75t47.5 23q19 0 41.5 -9t44.5 -20.5t42.5 -20.5t35.5 -9q17 0 30 9.5t16 41.5h5q-5 -51 -20.5 -74.5t-47.5 -23.5z" />
    <glyph glyph-name="Ograve" unicode="&#xd2;" horiz-adv-x="715" 
d="M360 -3q56 0 100 22t75.5 63t48 99.5t16.5 131.5q0 70 -18.5 128t-51 100t-77.5 65.5t-98 23.5q-55 0 -99 -22.5t-75.5 -64t-48.5 -100.5t-17 -133q0 -69 18 -127t50.5 -99t77.5 -64t99 -23zM356 -14q-71 0 -131 24t-104 66.5t-69 102.5t-25 132q0 65 27 124t72.5 105
t105.5 73t126 27q71 0 131.5 -24t104.5 -67.5t69 -103.5t25 -133q0 -65 -27 -124t-72.5 -104t-106 -71.5t-126.5 -26.5zM199 845h79l109 -187h-4z" />
    <glyph glyph-name="Oacute" unicode="&#xd3;" horiz-adv-x="715" 
d="M360 -3q56 0 100 22t75.5 63t48 99.5t16.5 131.5q0 70 -18.5 128t-51 100t-77.5 65.5t-98 23.5q-55 0 -99 -22.5t-75.5 -64t-48.5 -100.5t-17 -133q0 -69 18 -127t50.5 -99t77.5 -64t99 -23zM356 -14q-71 0 -131 24t-104 66.5t-69 102.5t-25 132q0 65 27 124t72.5 105
t105.5 73t126 27q71 0 131.5 -24t104.5 -67.5t69 -103.5t25 -133q0 -65 -27 -124t-72.5 -104t-106 -71.5t-126.5 -26.5zM437 845h79l-184 -187h-4z" />
    <glyph glyph-name="Ocircumflex" unicode="&#xd4;" horiz-adv-x="715" 
d="M360 -3q56 0 100 22t75.5 63t48 99.5t16.5 131.5q0 70 -18.5 128t-51 100t-77.5 65.5t-98 23.5q-55 0 -99 -22.5t-75.5 -64t-48.5 -100.5t-17 -133q0 -69 18 -127t50.5 -99t77.5 -64t99 -23zM356 -14q-71 0 -131 24t-104 66.5t-69 102.5t-25 132q0 65 27 124t72.5 105
t105.5 73t126 27q71 0 131.5 -24t104.5 -67.5t69 -103.5t25 -133q0 -65 -27 -124t-72.5 -104t-106 -71.5t-126.5 -26.5zM359 834h2l134 -187h-4l-130 112h-2l-130 -112h-4z" />
    <glyph glyph-name="Otilde" unicode="&#xd5;" horiz-adv-x="715" 
d="M360 -3q56 0 100 22t75.5 63t48 99.5t16.5 131.5q0 70 -18.5 128t-51 100t-77.5 65.5t-98 23.5q-55 0 -99 -22.5t-75.5 -64t-48.5 -100.5t-17 -133q0 -69 18 -127t50.5 -99t77.5 -64t99 -23zM356 -14q-71 0 -131 24t-104 66.5t-69 102.5t-25 132q0 65 27 124t72.5 105
t105.5 73t126 27q71 0 131.5 -24t104.5 -67.5t69 -103.5t25 -133q0 -65 -27 -124t-72.5 -104t-106 -71.5t-126.5 -26.5zM434 664q-19 0 -41.5 9.5t-45 20.5t-42.5 20.5t-35 9.5q-18 0 -30.5 -8.5t-15.5 -43.5h-5q5 52 20.5 75t47.5 23q19 0 41.5 -9t44.5 -20.5t42.5 -20.5
t35.5 -9q17 0 30 9.5t16 41.5h5q-5 -51 -20.5 -74.5t-47.5 -23.5z" />
    <glyph glyph-name="Odieresis" unicode="&#xd6;" horiz-adv-x="715" 
d="M360 -3q56 0 100 22t75.5 63t48 99.5t16.5 131.5q0 70 -18.5 128t-51 100t-77.5 65.5t-98 23.5q-55 0 -99 -22.5t-75.5 -64t-48.5 -100.5t-17 -133q0 -69 18 -127t50.5 -99t77.5 -64t99 -23zM356 -14q-71 0 -131 24t-104 66.5t-69 102.5t-25 132q0 65 27 124t72.5 105
t105.5 73t126 27q71 0 131.5 -24t104.5 -67.5t69 -103.5t25 -133q0 -65 -27 -124t-72.5 -104t-106 -71.5t-126.5 -26.5zM440 676q-24 0 -35 16t-11 29q0 7 2.5 15.5t8.5 16t14.5 12.5t20.5 5t20.5 -5t14.5 -12.5t8.5 -16t2.5 -15.5q0 -13 -11 -29t-35 -16zM280 676
q-24 0 -35 16t-11 29q0 7 2.5 15.5t8.5 16t14.5 12.5t20.5 5t20.5 -5t14.5 -12.5t8.5 -16t2.5 -15.5q0 -13 -11 -29t-35 -16z" />
    <glyph glyph-name="Oslash" unicode="&#xd8;" horiz-adv-x="715" 
d="M504 569q-62 60 -149 60q-55 0 -99 -22.5t-75.5 -64t-48.5 -100.5t-17 -132q0 -82 24.5 -146.5t68.5 -106.5zM511 562l-12.5 -22t-33.5 -57.5t-47.5 -81.5t-54.5 -94t-54.5 -94t-47.5 -82.5t-33.5 -58.5l-12.5 -22q62 -53 145 -53q56 0 100 22t75.5 63t48 99.5
t16.5 131.5q0 79 -23.5 143t-65.5 106zM530 596q73 -42 115.5 -115.5t42.5 -168.5q0 -65 -27 -124t-72.5 -104t-106 -71.5t-126.5 -26.5q-44 0 -83.5 9t-74.5 26q-8 -14 -17.5 -30.5t-17.5 -30.5q-10 -17 -19 -33h-11q17 27 29 49q11 19 19.5 34.5t8.5 14.5q-75 41 -119 115
t-44 171q0 65 27 124t72.5 105t105.5 73t126 27q46 0 87 -10t77 -29l51 88h11q-9 -15 -19 -32q-8 -14 -17.5 -30.5t-17.5 -30.5z" />
    <glyph glyph-name="Ugrave" unicode="&#xd9;" horiz-adv-x="666" 
d="M350 -14q-129 0 -186.5 53t-57.5 176v387q0 5 -9.5 8.5t-48.5 6.5l-39 3l-3 6h281l-3 -6l-50 -4q-26 -2 -37 -7t-11 -10v-371q0 -109 47 -159t148 -50q91 0 139 56t48 174l-1 336q0 11 -22 19.5t-68 13.5l-19 2l-3 6h215l-3 -6l-20 -2q-32 -3 -50.5 -12t-18.5 -23
l-1 -337q-1 -124 -54.5 -192t-172.5 -68zM209 845h79l109 -187h-4z" />
    <glyph glyph-name="Uacute" unicode="&#xda;" horiz-adv-x="666" 
d="M350 -14q-129 0 -186.5 53t-57.5 176v387q0 5 -9.5 8.5t-48.5 6.5l-39 3l-3 6h281l-3 -6l-50 -4q-26 -2 -37 -7t-11 -10v-371q0 -109 47 -159t148 -50q91 0 139 56t48 174l-1 336q0 11 -22 19.5t-68 13.5l-19 2l-3 6h215l-3 -6l-20 -2q-32 -3 -50.5 -12t-18.5 -23
l-1 -337q-1 -124 -54.5 -192t-172.5 -68zM422 845h79l-184 -187h-4z" />
    <glyph glyph-name="Ucircumflex" unicode="&#xdb;" horiz-adv-x="666" 
d="M350 -14q-129 0 -186.5 53t-57.5 176v387q0 5 -9.5 8.5t-48.5 6.5l-39 3l-3 6h281l-3 -6l-50 -4q-26 -2 -37 -7t-11 -10v-371q0 -109 47 -159t148 -50q91 0 139 56t48 174l-1 336q0 11 -22 19.5t-68 13.5l-19 2l-3 6h215l-3 -6l-20 -2q-32 -3 -50.5 -12t-18.5 -23
l-1 -337q-1 -124 -54.5 -192t-172.5 -68zM354 834h2l134 -187h-4l-130 112h-2l-130 -112h-4z" />
    <glyph glyph-name="Udieresis" unicode="&#xdc;" horiz-adv-x="666" 
d="M350 -14q-129 0 -186.5 53t-57.5 176v387q0 5 -9.5 8.5t-48.5 6.5l-39 3l-3 6h281l-3 -6l-50 -4q-26 -2 -37 -7t-11 -10v-371q0 -109 47 -159t148 -50q91 0 139 56t48 174l-1 336q0 11 -22 19.5t-68 13.5l-19 2l-3 6h215l-3 -6l-20 -2q-32 -3 -50.5 -12t-18.5 -23
l-1 -337q-1 -124 -54.5 -192t-172.5 -68zM449 676q-24 0 -35 16t-11 29q0 7 2.5 15.5t8.5 16t14.5 12.5t20.5 5t20.5 -5t14.5 -12.5t8.5 -16t2.5 -15.5q0 -13 -11 -29t-35 -16zM289 676q-24 0 -35 16t-11 29q0 7 2.5 15.5t8.5 16t14.5 12.5t20.5 5t20.5 -5t14.5 -12.5
t8.5 -16t2.5 -15.5q0 -13 -11 -29t-35 -16z" />
    <glyph glyph-name="Yacute" unicode="&#xdd;" horiz-adv-x="610" 
d="M167 6l50 4q26 2 37 6.5t11 9.5v255l-148 261q-11 20 -20 34t-19 22.5t-22 13t-29 5.5l-28 2l-3 6h264l-3 -6l-30 -1q-40 -2 -43.5 -16.5t18.5 -54.5l136 -241h2l94 178q20 39 29.5 63t7.5 38.5t-17.5 21.5t-44.5 10l-25 2l-3 6h220l-3 -6l-22 -2q-19 -1 -33 -5.5
t-28 -17.5t-29.5 -38t-37.5 -68l-103 -193v-272q0 -5 9.5 -8t48.5 -6l39 -3l3 -6h-281zM411 845h79l-184 -187h-4z" />
    <glyph glyph-name="Thorn" unicode="&#xde;" horiz-adv-x="539" 
d="M278 169q72 0 112 41.5t40 113.5q0 36 -9 65.5t-28.5 49.5t-51.5 31t-79 10l-71 -1v-298q16 -5 35.5 -8.5t51.5 -3.5zM13 6l50 4q26 2 37 6.5t11 9.5v576q0 5 -9.5 8t-48.5 6l-39 3l-3 6h281l-3 -6l-50 -4q-26 -2 -37 -6.5t-11 -9.5v-108q11 1 27.5 0.5t32.5 -0.5
q18 0 38 -1q114 0 170 -41.5t56 -113.5q0 -38 -17.5 -70.5t-48.5 -56.5t-74.5 -37.5t-96.5 -13.5q-23 0 -47 3l-40 5v-142q0 -5 9.5 -8.5t48.5 -5.5l49 -3l3 -6h-291z" />
    <glyph glyph-name="germandbls" unicode="&#xdf;" horiz-adv-x="493" 
d="M295 411q30 -15 61.5 -41t57.5 -59t42.5 -70.5t16.5 -76.5q0 -35 -12 -66.5t-32.5 -55.5t-48.5 -38t-60 -14q-22 0 -41 5.5t-33.5 15.5t-23 24t-8.5 30q0 23 14 38t35 15q22 0 32 -14t8.5 -30t-14 -28.5t-35.5 -9.5q5 -14 22 -26t46 -12q42 0 65.5 30.5t23.5 84.5
q0 75 -47.5 150.5t-143.5 132.5v3q64 11 98 43.5t34 98.5q0 23 -7 43.5t-20 36t-30.5 24.5t-38.5 9q-53 0 -78 -39.5t-25 -127.5v-486h-133l3 6l18 1q23 2 32.5 3.5t9.5 10.5v364l-73 1l14 35h58l2 25q9 103 58 160t122 57q72 0 113.5 -34t41.5 -91q0 -27 -10 -47.5
t-27 -36.5t-39.5 -26.5t-47.5 -17.5z" />
    <glyph glyph-name="agrave" unicode="&#xe0;" horiz-adv-x="397" 
d="M166 32q49 0 90 41l6 159q-53 -13 -85.5 -27.5t-50 -30t-23 -33t-5.5 -35.5q0 -34 19.5 -54t48.5 -20zM318 -10q-26 0 -43.5 19t-19.5 51v1q-29 -27 -61 -48.5t-67 -21.5q-45 0 -72.5 27.5t-27.5 65.5q0 24 10.5 45.5t37 41t72 37t115.5 34.5l1 44q2 38 -6 62.5t-21.5 39
t-31.5 20.5t-38 6q-15 0 -30 -4t-26.5 -10t-19 -12t-7.5 -11q0 -3 4 -7t8.5 -10.5t8.5 -14.5t4 -18q0 -15 -11.5 -27t-31.5 -12q-19 0 -31 10.5t-12 28.5q0 19 19 38.5t48 35.5t62.5 26t61.5 10q31 0 54.5 -6.5t39 -23t22 -45t4.5 -71.5l-10 -216q-2 -25 7 -35t26 -10
q12 0 23 8t22 19l5 -3q-7 -8 -15.5 -19t-19.5 -21t-24.5 -17t-28.5 -7zM51 678h79l109 -187h-4z" />
    <glyph glyph-name="aacute" unicode="&#xe1;" horiz-adv-x="397" 
d="M166 32q49 0 90 41l6 159q-53 -13 -85.5 -27.5t-50 -30t-23 -33t-5.5 -35.5q0 -34 19.5 -54t48.5 -20zM318 -10q-26 0 -43.5 19t-19.5 51v1q-29 -27 -61 -48.5t-67 -21.5q-45 0 -72.5 27.5t-27.5 65.5q0 24 10.5 45.5t37 41t72 37t115.5 34.5l1 44q2 38 -6 62.5t-21.5 39
t-31.5 20.5t-38 6q-15 0 -30 -4t-26.5 -10t-19 -12t-7.5 -11q0 -3 4 -7t8.5 -10.5t8.5 -14.5t4 -18q0 -15 -11.5 -27t-31.5 -12q-19 0 -31 10.5t-12 28.5q0 19 19 38.5t48 35.5t62.5 26t61.5 10q31 0 54.5 -6.5t39 -23t22 -45t4.5 -71.5l-10 -216q-2 -25 7 -35t26 -10
q12 0 23 8t22 19l5 -3q-7 -8 -15.5 -19t-19.5 -21t-24.5 -17t-28.5 -7zM274 678h79l-184 -187h-4z" />
    <glyph glyph-name="acircumflex" unicode="&#xe2;" horiz-adv-x="397" 
d="M166 32q49 0 90 41l6 159q-53 -13 -85.5 -27.5t-50 -30t-23 -33t-5.5 -35.5q0 -34 19.5 -54t48.5 -20zM318 -10q-26 0 -43.5 19t-19.5 51v1q-29 -27 -61 -48.5t-67 -21.5q-45 0 -72.5 27.5t-27.5 65.5q0 24 10.5 45.5t37 41t72 37t115.5 34.5l1 44q2 38 -6 62.5t-21.5 39
t-31.5 20.5t-38 6q-15 0 -30 -4t-26.5 -10t-19 -12t-7.5 -11q0 -3 4 -7t8.5 -10.5t8.5 -14.5t4 -18q0 -15 -11.5 -27t-31.5 -12q-19 0 -31 10.5t-12 28.5q0 19 19 38.5t48 35.5t62.5 26t61.5 10q31 0 54.5 -6.5t39 -23t22 -45t4.5 -71.5l-10 -216q-2 -25 7 -35t26 -10
q12 0 23 8t22 19l5 -3q-7 -8 -15.5 -19t-19.5 -21t-24.5 -17t-28.5 -7zM191 667h2l134 -187h-4l-130 112h-2l-130 -112h-4z" />
    <glyph glyph-name="atilde" unicode="&#xe3;" horiz-adv-x="397" 
d="M166 32q49 0 90 41l6 159q-53 -13 -85.5 -27.5t-50 -30t-23 -33t-5.5 -35.5q0 -34 19.5 -54t48.5 -20zM318 -10q-26 0 -43.5 19t-19.5 51v1q-29 -27 -61 -48.5t-67 -21.5q-45 0 -72.5 27.5t-27.5 65.5q0 24 10.5 45.5t37 41t72 37t115.5 34.5l1 44q2 38 -6 62.5t-21.5 39
t-31.5 20.5t-38 6q-15 0 -30 -4t-26.5 -10t-19 -12t-7.5 -11q0 -3 4 -7t8.5 -10.5t8.5 -14.5t4 -18q0 -15 -11.5 -27t-31.5 -12q-19 0 -31 10.5t-12 28.5q0 19 19 38.5t48 35.5t62.5 26t61.5 10q31 0 54.5 -6.5t39 -23t22 -45t4.5 -71.5l-10 -216q-2 -25 7 -35t26 -10
q12 0 23 8t22 19l5 -3q-7 -8 -15.5 -19t-19.5 -21t-24.5 -17t-28.5 -7zM277 497q-19 0 -41.5 9.5t-45 20.5t-42.5 20.5t-35 9.5q-18 0 -30.5 -8.5t-15.5 -43.5h-5q5 52 20.5 75t47.5 23q19 0 41.5 -9t44.5 -20.5t42.5 -20.5t35.5 -9q17 0 30 9.5t16 41.5h5
q-5 -51 -20.5 -74.5t-47.5 -23.5z" />
    <glyph glyph-name="adieresis" unicode="&#xe4;" horiz-adv-x="397" 
d="M166 32q49 0 90 41l6 159q-53 -13 -85.5 -27.5t-50 -30t-23 -33t-5.5 -35.5q0 -34 19.5 -54t48.5 -20zM318 -10q-26 0 -43.5 19t-19.5 51v1q-29 -27 -61 -48.5t-67 -21.5q-45 0 -72.5 27.5t-27.5 65.5q0 24 10.5 45.5t37 41t72 37t115.5 34.5l1 44q2 38 -6 62.5t-21.5 39
t-31.5 20.5t-38 6q-15 0 -30 -4t-26.5 -10t-19 -12t-7.5 -11q0 -3 4 -7t8.5 -10.5t8.5 -14.5t4 -18q0 -15 -11.5 -27t-31.5 -12q-19 0 -31 10.5t-12 28.5q0 19 19 38.5t48 35.5t62.5 26t61.5 10q31 0 54.5 -6.5t39 -23t22 -45t4.5 -71.5l-10 -216q-2 -25 7 -35t26 -10
q12 0 23 8t22 19l5 -3q-7 -8 -15.5 -19t-19.5 -21t-24.5 -17t-28.5 -7zM267 509q-24 0 -35 16t-11 29q0 7 2.5 15.5t8.5 16t14.5 12.5t20.5 5t20.5 -5t14.5 -12.5t8.5 -16t2.5 -15.5q0 -13 -11 -29t-35 -16zM107 509q-24 0 -35 16t-11 29q0 7 2.5 15.5t8.5 16t14.5 12.5
t20.5 5t20.5 -5t14.5 -12.5t8.5 -16t2.5 -15.5q0 -13 -11 -29t-35 -16z" />
    <glyph glyph-name="aring" unicode="&#xe5;" horiz-adv-x="397" 
d="M166 32q49 0 90 41l6 159q-53 -13 -85.5 -27.5t-50 -30t-23 -33t-5.5 -35.5q0 -34 19.5 -54t48.5 -20zM318 -10q-26 0 -43.5 19t-19.5 51v1q-29 -27 -61 -48.5t-67 -21.5q-45 0 -72.5 27.5t-27.5 65.5q0 24 10.5 45.5t37 41t72 37t115.5 34.5l1 44q2 38 -6 62.5t-21.5 39
t-31.5 20.5t-38 6q-15 0 -30 -4t-26.5 -10t-19 -12t-7.5 -11q0 -3 4 -7t8.5 -10.5t8.5 -14.5t4 -18q0 -15 -11.5 -27t-31.5 -12q-19 0 -31 10.5t-12 28.5q0 19 19 38.5t48 35.5t62.5 26t61.5 10q31 0 54.5 -6.5t39 -23t22 -45t4.5 -71.5l-10 -216q-2 -25 7 -35t26 -10
q12 0 23 8t22 19l5 -3q-7 -8 -15.5 -19t-19.5 -21t-24.5 -17t-28.5 -7zM203 507q37 0 58 24t21 57q0 32 -21 56.5t-58 24.5t-58 -24.5t-21 -56.5q0 -33 21 -57t58 -24zM203 498q-42 0 -65.5 26.5t-23.5 63.5q0 36 23.5 63t65.5 27t65.5 -27t23.5 -63q0 -37 -23.5 -63.5
t-65.5 -26.5z" />
    <glyph glyph-name="ae" unicode="&#xe6;" horiz-adv-x="654" 
d="M549 299q0 25 -5 48t-15.5 41t-27 28.5t-39.5 10.5q-21 0 -40 -10.5t-35.5 -28.5t-29 -41.5t-18.5 -50.5zM168 28q31 0 55.5 19t56.5 55q-10 22 -15.5 49.5t-5.5 53.5v13.5t1 12.5q-53 -13 -85 -28t-49 -31t-22.5 -33t-5.5 -36q0 -33 20.5 -54t49.5 -21zM130 -13
q-22 0 -41 7.5t-32.5 20.5t-21.5 30.5t-8 36.5q0 24 10.5 46t36.5 41.5t71.5 38t115.5 34.5l3 44q2 37 -6 61.5t-22 39.5t-32 21t-38 6q-15 0 -30 -4t-26.5 -10t-19 -12t-7.5 -11q0 -3 4 -7t8.5 -10.5t8.5 -14.5t4 -18q0 -15 -11.5 -27t-31.5 -12q-19 0 -31 10.5t-12 28.5
q0 19 19 38.5t47.5 35.5t63 26t65.5 10q43 0 67.5 -15t35.5 -51q27 31 63 48.5t87 17.5q38 0 67 -10.5t49.5 -29.5t31 -43.5t10.5 -53.5q0 -4 -0.5 -6.5l-1.5 -7.5q-80 1 -143 1h-146q-2 -11 -2.5 -27t-0.5 -27q0 -44 12 -80.5t33 -62t49.5 -39.5t61.5 -14q46 0 79.5 17.5
t60.5 62.5l8 -3q-35 -59 -77.5 -93t-103.5 -34q-58 0 -103 30t-68 75q-45 -47 -80.5 -76t-75.5 -29z" />
    <glyph glyph-name="ccedilla" unicode="&#xe7;" horiz-adv-x="403" 
d="M217 -13q-42 0 -78 16.5t-63 46t-42 68.5t-15 84q0 49 16.5 91.5t45.5 74.5t70 50.5t90 18.5q30 0 56.5 -6.5t46 -18.5t30.5 -29t11 -38q0 -20 -14 -34t-31 -14q-20 0 -32.5 12.5t-12.5 29.5q0 24 10 34t10 16q0 5 -6 12t-16 13t-23 10.5t-27 4.5q-30 0 -57 -14.5
t-47 -40.5t-32 -61.5t-12 -78.5q0 -45 12 -81t33.5 -62t50 -40t61.5 -14q46 0 76.5 17.5t58.5 62.5l8 -3q-30 -54 -67.5 -87.5t-91.5 -38.5l-49 -57q29 5 54.5 2.5t45 -12t31 -25t11.5 -35.5q0 -28 -17 -48t-44 -33.5t-61.5 -22t-69.5 -12.5l-2 4q66 11 106.5 32t40.5 56
q0 29 -22 41.5t-55 12.5q-20 0 -37.5 -3t-30.5 -8v7l87 100h-7z" />
    <glyph glyph-name="egrave" unicode="&#xe8;" horiz-adv-x="413" 
d="M310 298q0 25 -5 48.5t-15.5 41.5t-27 28.5t-39.5 10.5q-21 0 -40 -10.5t-35.5 -28.5t-28.5 -41.5t-18 -50.5zM218 -13q-42 0 -78.5 16.5t-63.5 46t-42 68.5t-15 84q0 48 15 90.5t43 75t66.5 51t86.5 18.5q38 0 67.5 -10.5t49.5 -29.5t30.5 -43.5t10.5 -53.5
q0 -4 -0.5 -6.5l-1.5 -7.5l-287 1q-2 -11 -3 -27t-1 -27q0 -44 12 -80.5t33.5 -62t50 -39.5t61.5 -14q46 0 78 17.5t61 62.5l7 -3q-34 -59 -76.5 -93t-103.5 -34zM75 678h79l109 -187h-4z" />
    <glyph glyph-name="eacute" unicode="&#xe9;" horiz-adv-x="413" 
d="M310 298q0 25 -5 48.5t-15.5 41.5t-27 28.5t-39.5 10.5q-21 0 -40 -10.5t-35.5 -28.5t-28.5 -41.5t-18 -50.5zM218 -13q-42 0 -78.5 16.5t-63.5 46t-42 68.5t-15 84q0 48 15 90.5t43 75t66.5 51t86.5 18.5q38 0 67.5 -10.5t49.5 -29.5t30.5 -43.5t10.5 -53.5
q0 -4 -0.5 -6.5l-1.5 -7.5l-287 1q-2 -11 -3 -27t-1 -27q0 -44 12 -80.5t33.5 -62t50 -39.5t61.5 -14q46 0 78 17.5t61 62.5l7 -3q-34 -59 -76.5 -93t-103.5 -34zM293 678h79l-184 -187h-4z" />
    <glyph glyph-name="ecircumflex" unicode="&#xea;" horiz-adv-x="413" 
d="M310 298q0 25 -5 48.5t-15.5 41.5t-27 28.5t-39.5 10.5q-21 0 -40 -10.5t-35.5 -28.5t-28.5 -41.5t-18 -50.5zM218 -13q-42 0 -78.5 16.5t-63.5 46t-42 68.5t-15 84q0 48 15 90.5t43 75t66.5 51t86.5 18.5q38 0 67.5 -10.5t49.5 -29.5t30.5 -43.5t10.5 -53.5
q0 -4 -0.5 -6.5l-1.5 -7.5l-287 1q-2 -11 -3 -27t-1 -27q0 -44 12 -80.5t33.5 -62t50 -39.5t61.5 -14q46 0 78 17.5t61 62.5l7 -3q-34 -59 -76.5 -93t-103.5 -34zM222 667h2l134 -187h-4l-130 112h-2l-130 -112h-4z" />
    <glyph glyph-name="edieresis" unicode="&#xeb;" horiz-adv-x="413" 
d="M310 298q0 25 -5 48.5t-15.5 41.5t-27 28.5t-39.5 10.5q-21 0 -40 -10.5t-35.5 -28.5t-28.5 -41.5t-18 -50.5zM218 -13q-42 0 -78.5 16.5t-63.5 46t-42 68.5t-15 84q0 48 15 90.5t43 75t66.5 51t86.5 18.5q38 0 67.5 -10.5t49.5 -29.5t30.5 -43.5t10.5 -53.5
q0 -4 -0.5 -6.5l-1.5 -7.5l-287 1q-2 -11 -3 -27t-1 -27q0 -44 12 -80.5t33.5 -62t50 -39.5t61.5 -14q46 0 78 17.5t61 62.5l7 -3q-34 -59 -76.5 -93t-103.5 -34zM296 509q-24 0 -35 16t-11 29q0 7 2.5 15.5t8.5 16t14.5 12.5t20.5 5t20.5 -5t14.5 -12.5t8.5 -16t2.5 -15.5
q0 -13 -11 -29t-35 -16zM136 509q-24 0 -35 16t-11 29q0 7 2.5 15.5t8.5 16t14.5 12.5t20.5 5t20.5 -5t14.5 -12.5t8.5 -16t2.5 -15.5q0 -13 -11 -29t-35 -16z" />
    <glyph glyph-name="igrave" unicode="&#xec;" horiz-adv-x="218" 
d="M16 6l18 1q23 2 32.5 4t9.5 11v291q0 23 -1.5 37.5t-6 22.5t-12.5 12t-21 6l-23 4l1 4l133 35v-414q0 -6 8.5 -8.5t41.5 -4.5l14 -1l3 -6h-200zM-37 678h79l109 -187h-4z" />
    <glyph glyph-name="iacute" unicode="&#xed;" horiz-adv-x="218" 
d="M16 6l18 1q23 2 32.5 4t9.5 11v291q0 23 -1.5 37.5t-6 22.5t-12.5 12t-21 6l-23 4l1 4l133 35v-414q0 -6 8.5 -8.5t41.5 -4.5l14 -1l3 -6h-200zM181 678h79l-184 -187h-4z" />
    <glyph glyph-name="icircumflex" unicode="&#xee;" horiz-adv-x="218" 
d="M113 667h2l118 -187h-5l-113 111h-2l-115 -111h-4zM16 6l18 1q23 2 32.5 4t9.5 11v291q0 23 -1.5 37.5t-6 22.5t-12.5 12t-21 6l-23 4l1 4l133 35v-414q0 -6 8.5 -8.5t41.5 -4.5l14 -1l3 -6h-200z" />
    <glyph glyph-name="idieresis" unicode="&#xef;" horiz-adv-x="218" 
d="M16 6l18 1q23 2 32.5 4t9.5 11v291q0 23 -1.5 37.5t-6 22.5t-12.5 12t-21 6l-23 4l1 4l133 35v-414q0 -6 8.5 -8.5t41.5 -4.5l14 -1l3 -6h-200zM194 509q-24 0 -35 16t-11 29q0 7 2.5 15.5t8.5 16t14.5 12.5t20.5 5t20.5 -5t14.5 -12.5t8.5 -16t2.5 -15.5q0 -13 -11 -29
t-35 -16zM34 509q-24 0 -35 16t-11 29q0 7 2.5 15.5t8.5 16t14.5 12.5t20.5 5t20.5 -5t14.5 -12.5t8.5 -16t2.5 -15.5q0 -13 -11 -29t-35 -16z" />
    <glyph glyph-name="eth" unicode="&#xf0;" horiz-adv-x="478" 
d="M239 -5q59 0 96 54t37 156q0 103 -37 163t-99 60q-30 0 -54.5 -15t-42.5 -42t-27.5 -64.5t-9.5 -83.5q0 -111 36 -169.5t101 -58.5zM200 556q1 0 -19.5 -6.5t-45.5 -14.5q-29 -10 -66 -21l2 12l116 38q-59 36 -142 49l1 7q96 -9 172 -46l120 40l2 -12l-106 -35
q55 -28 96.5 -66t69 -81.5t41.5 -90t14 -91.5q0 -54 -16.5 -99.5t-45.5 -79.5t-69 -53t-87 -19t-87 17t-69 46.5t-45.5 70.5t-16.5 89t16.5 89t46 71.5t69.5 48t86 17.5q48 0 84 -12q-21 39 -50 72.5t-71 59.5z" />
    <glyph glyph-name="ntilde" unicode="&#xf1;" horiz-adv-x="491" 
d="M16 6l18 1q23 2 32.5 4t9.5 11v290q0 23 -1.5 37.5t-6 23t-12.5 12.5t-21 6l-23 4l1 4l134 35l-3 -86l3 -2q14 12 32.5 28t40 29.5t45.5 23t51 9.5q48 0 75 -28q32 -32 32 -97v-290q0 -2 1 -4t5.5 -3.5t14.5 -3t29 -3.5l14 -1l3 -6h-199l3 6l18 1q26 2 33.5 5.5t7.5 9.5
v276q0 88 -88 88q-35 0 -65 -14.5t-54 -37.5v-130v-184q0 -6 8.5 -8.5t41.5 -4.5l14 -1l3 -6h-200zM324 497q-19 0 -41.5 9.5t-45 20.5t-42.5 20.5t-35 9.5q-18 0 -30.5 -8.5t-15.5 -43.5h-5q5 52 20.5 75t47.5 23q19 0 41.5 -9t44.5 -20.5t42.5 -20.5t35.5 -9q17 0 30 9.5
t16 41.5h5q-5 -51 -20.5 -74.5t-47.5 -23.5z" />
    <glyph glyph-name="ograve" unicode="&#xf2;" horiz-adv-x="485" 
d="M244 -5q31 0 56.5 17t43.5 46t28 67t10 80q0 58 -13 108t-42 79q-17 16 -38 26.5t-48 10.5q-32 0 -58 -17t-44 -45.5t-27.5 -66t-9.5 -77.5q0 -62 14 -113t43 -80q35 -35 85 -35zM243 -13q-48 0 -89 17t-71 47t-47 71t-17 88t17 88.5t47 72t71 48.5t89 18t88.5 -17
t70.5 -47t47 -71t17 -88q0 -48 -17 -89.5t-47 -72t-71 -48t-88 -17.5zM74 678h79l109 -187h-4z" />
    <glyph glyph-name="oacute" unicode="&#xf3;" horiz-adv-x="485" 
d="M244 -5q31 0 56.5 17t43.5 46t28 67t10 80q0 58 -13 108t-42 79q-17 16 -38 26.5t-48 10.5q-32 0 -58 -17t-44 -45.5t-27.5 -66t-9.5 -77.5q0 -62 14 -113t43 -80q35 -35 85 -35zM243 -13q-48 0 -89 17t-71 47t-47 71t-17 88t17 88.5t47 72t71 48.5t89 18t88.5 -17
t70.5 -47t47 -71t17 -88q0 -48 -17 -89.5t-47 -72t-71 -48t-88 -17.5zM327 678h79l-184 -187h-4z" />
    <glyph glyph-name="ocircumflex" unicode="&#xf4;" horiz-adv-x="485" 
d="M244 -5q31 0 56.5 17t43.5 46t28 67t10 80q0 58 -13 108t-42 79q-17 16 -38 26.5t-48 10.5q-32 0 -58 -17t-44 -45.5t-27.5 -66t-9.5 -77.5q0 -62 14 -113t43 -80q35 -35 85 -35zM243 -13q-48 0 -89 17t-71 47t-47 71t-17 88t17 88.5t47 72t71 48.5t89 18t88.5 -17
t70.5 -47t47 -71t17 -88q0 -48 -17 -89.5t-47 -72t-71 -48t-88 -17.5zM241 667h2l134 -187h-4l-130 112h-2l-130 -112h-4z" />
    <glyph glyph-name="otilde" unicode="&#xf5;" horiz-adv-x="485" 
d="M244 -5q31 0 56.5 17t43.5 46t28 67t10 80q0 58 -13 108t-42 79q-17 16 -38 26.5t-48 10.5q-32 0 -58 -17t-44 -45.5t-27.5 -66t-9.5 -77.5q0 -62 14 -113t43 -80q35 -35 85 -35zM243 -13q-48 0 -89 17t-71 47t-47 71t-17 88t17 88.5t47 72t71 48.5t89 18t88.5 -17
t70.5 -47t47 -71t17 -88q0 -48 -17 -89.5t-47 -72t-71 -48t-88 -17.5zM316 497q-19 0 -41.5 9.5t-45 20.5t-42.5 20.5t-35 9.5q-18 0 -30.5 -8.5t-15.5 -43.5h-5q5 52 20.5 75t47.5 23q19 0 41.5 -9t44.5 -20.5t42.5 -20.5t35.5 -9q17 0 30 9.5t16 41.5h5
q-5 -51 -20.5 -74.5t-47.5 -23.5z" />
    <glyph glyph-name="odieresis" unicode="&#xf6;" horiz-adv-x="485" 
d="M244 -5q31 0 56.5 17t43.5 46t28 67t10 80q0 58 -13 108t-42 79q-17 16 -38 26.5t-48 10.5q-32 0 -58 -17t-44 -45.5t-27.5 -66t-9.5 -77.5q0 -62 14 -113t43 -80q35 -35 85 -35zM243 -13q-48 0 -89 17t-71 47t-47 71t-17 88t17 88.5t47 72t71 48.5t89 18t88.5 -17
t70.5 -47t47 -71t17 -88q0 -48 -17 -89.5t-47 -72t-71 -48t-88 -17.5zM322 509q-24 0 -35 16t-11 29q0 7 2.5 15.5t8.5 16t14.5 12.5t20.5 5t20.5 -5t14.5 -12.5t8.5 -16t2.5 -15.5q0 -13 -11 -29t-35 -16zM162 509q-24 0 -35 16t-11 29q0 7 2.5 15.5t8.5 16t14.5 12.5
t20.5 5t20.5 -5t14.5 -12.5t8.5 -16t2.5 -15.5q0 -13 -11 -29t-35 -16z" />
    <glyph glyph-name="divide" unicode="&#xf7;" horiz-adv-x="544" 
d="M271 -1q50 0 92.5 18t73.5 50t49 75.5t18 94.5q0 50 -18 94t-49 76t-73 50.5t-91 18.5t-91.5 -18.5t-74 -51t-49.5 -76.5t-18 -95t17.5 -94t48.5 -74.5t73.5 -49.5t91.5 -18zM271 -10q-52 0 -96 18.5t-76 51t-50.5 77.5t-18.5 98t18.5 98.5t51 79.5t77 53t96.5 19
q51 0 95.5 -19t76.5 -52.5t50.5 -78.5t18.5 -98t-18.5 -98.5t-51 -78.5t-77 -51.5t-96.5 -18.5z" />
    <glyph glyph-name="oslash" unicode="&#xf8;" horiz-adv-x="485" 
d="M339 377l-8 -14t-21.5 -37.5t-31 -53.5t-35.5 -61q-42 -73 -97 -166q3 -4 6 -7.5t7 -7.5q35 -35 85 -35q31 0 56.5 17t43.5 46t28 67t10 80q0 51 -10 96.5t-33 75.5zM333 385q-2 3 -6 7q-17 16 -38 26.5t-48 10.5q-32 0 -58 -17t-44 -45.5t-27.5 -66t-9.5 -77.5
q0 -51 9 -95t29 -75zM121 21q-47 29 -74.5 78.5t-27.5 110.5q0 47 17 88.5t47 72t71 48.5t89 18q57 0 105 -25l96 165h11q-19 -32 -37 -64q-16 -27 -32.5 -56t-29.5 -50q51 -29 80.5 -79.5t29.5 -113.5q0 -48 -17 -89.5t-47 -72t-71 -48t-88 -17.5q-32 0 -60.5 7.5
t-53.5 21.5l-83 -144h-11l86 149v0z" />
    <glyph glyph-name="ugrave" unicode="&#xf9;" horiz-adv-x="466" 
d="M340 75h-1q-14 -13 -32 -28t-39 -28.5t-45 -22.5t-51 -9q-49 0 -78 29q-17 17 -23.5 41t-6.5 55v291q0 2 -1 4t-5.5 3.5t-15 3t-29.5 2.5l-14 1l-3 6h138v-298q0 -88 89 -88q35 0 63 13.5t51 34.5v116v164q0 31 -9.5 40t-40.5 11l-14 1l-3 6h138v-361q0 -17 4.5 -23.5
t20.5 -8.5l39 -6l-1 -5l-133 -35zM98 678h79l109 -187h-4z" />
    <glyph glyph-name="uacute" unicode="&#xfa;" horiz-adv-x="466" 
d="M340 75h-1q-14 -13 -32 -28t-39 -28.5t-45 -22.5t-51 -9q-49 0 -78 29q-17 17 -23.5 41t-6.5 55v291q0 2 -1 4t-5.5 3.5t-15 3t-29.5 2.5l-14 1l-3 6h138v-298q0 -88 89 -88q35 0 63 13.5t51 34.5v116v164q0 31 -9.5 40t-40.5 11l-14 1l-3 6h138v-361q0 -17 4.5 -23.5
t20.5 -8.5l39 -6l-1 -5l-133 -35zM311 678h79l-184 -187h-4z" />
    <glyph glyph-name="ucircumflex" unicode="&#xfb;" horiz-adv-x="466" 
d="M340 75h-1q-14 -13 -32 -28t-39 -28.5t-45 -22.5t-51 -9q-49 0 -78 29q-17 17 -23.5 41t-6.5 55v291q0 2 -1 4t-5.5 3.5t-15 3t-29.5 2.5l-14 1l-3 6h138v-298q0 -88 89 -88q35 0 63 13.5t51 34.5v116v164q0 31 -9.5 40t-40.5 11l-14 1l-3 6h138v-361q0 -17 4.5 -23.5
t20.5 -8.5l39 -6l-1 -5l-133 -35zM232 667h2l134 -187h-4l-130 112h-2l-130 -112h-4z" />
    <glyph glyph-name="udieresis" unicode="&#xfc;" horiz-adv-x="466" 
d="M340 75h-1q-14 -13 -32 -28t-39 -28.5t-45 -22.5t-51 -9q-49 0 -78 29q-17 17 -23.5 41t-6.5 55v291q0 2 -1 4t-5.5 3.5t-15 3t-29.5 2.5l-14 1l-3 6h138v-298q0 -88 89 -88q35 0 63 13.5t51 34.5v116v164q0 31 -9.5 40t-40.5 11l-14 1l-3 6h138v-361q0 -17 4.5 -23.5
t20.5 -8.5l39 -6l-1 -5l-133 -35zM317 509q-24 0 -35 16t-11 29q0 7 2.5 15.5t8.5 16t14.5 12.5t20.5 5t20.5 -5t14.5 -12.5t8.5 -16t2.5 -15.5q0 -13 -11 -29t-35 -16zM157 509q-24 0 -35 16t-11 29q0 7 2.5 15.5t8.5 16t14.5 12.5t20.5 5t20.5 -5t14.5 -12.5t8.5 -16
t2.5 -15.5q0 -13 -11 -29t-35 -16z" />
    <glyph glyph-name="yacute" unicode="&#xfd;" horiz-adv-x="448" 
d="M80 -256q-24 0 -40.5 13t-16.5 33q0 18 13 31.5t32 13.5q22 0 35 -14t17 -34q27 5 43 35t36 89l27 82l-1 1l-153 359q-8 20 -13.5 32t-11.5 18.5t-13 8.5t-19 3l-19 1l-3 6h203l-2 -6l-17 -1q-29 -2 -33.5 -13t6.5 -39l113 -271l78 212q12 35 17 56t0.5 32.5t-18.5 16
t-39 6.5l-14 1l-3 6h169l-3 -6l-13 -1q-17 -1 -27.5 -5.5t-19.5 -17.5t-18 -37t-24 -63l-111 -296l-33 -103q-23 -75 -51 -112t-73 -37zM299 644h75l-174 -178h-4z" />
    <glyph glyph-name="thorn" unicode="&#xfe;" horiz-adv-x="470" 
d="M242 -1q31 0 55.5 15.5t41 42t25 63t8.5 78.5q0 39 -10 73.5t-28 60t-44 40.5t-59 15q-37 0 -65 -17.5t-51 -41.5v-241q9 -18 22.5 -34t30 -28t35.5 -19t39 -7zM-14 -247l18 1q23 2 32.5 4t9.5 11v806q0 29 -7.5 40.5t-33.5 15.5l-23 4l1 5l132 33v-328l2 -2q32 36 70 62
t87 26q37 0 69.5 -15t56.5 -42.5t37.5 -65.5t13.5 -84q0 -56 -19.5 -100t-51 -74.5t-70.5 -46.5t-78 -16q-35 0 -64.5 8t-50.5 18h-2v-247q0 -5 8.5 -8t42.5 -4l34 -1l3 -6h-220z" />
    <glyph glyph-name="ydieresis" unicode="&#xff;" horiz-adv-x="448" 
d="M80 -256q-24 0 -40.5 13t-16.5 33q0 18 13 31.5t32 13.5q22 0 35 -14t17 -34q27 5 43 35t36 89l27 82l-1 1l-153 359q-8 20 -13.5 32t-11.5 18.5t-13 8.5t-19 3l-19 1l-3 6h203l-2 -6l-17 -1q-29 -2 -33.5 -13t6.5 -39l113 -271l78 212q12 35 17 56t0.5 32.5t-18.5 16
t-39 6.5l-14 1l-3 6h169l-3 -6l-13 -1q-17 -1 -27.5 -5.5t-19.5 -17.5t-18 -37t-24 -63l-111 -296l-33 -103q-23 -75 -51 -112t-73 -37zM313 509q-24 0 -35 16t-11 29q0 7 2.5 15.5t8.5 16t14.5 12.5t20.5 5t20.5 -5t14.5 -12.5t8.5 -16t2.5 -15.5q0 -13 -11 -29t-35 -16z
M153 509q-24 0 -35 16t-11 29q0 7 2.5 15.5t8.5 16t14.5 12.5t20.5 5t20.5 -5t14.5 -12.5t8.5 -16t2.5 -15.5q0 -13 -11 -29t-35 -16z" />
    <glyph glyph-name="dotlessi" unicode="&#x131;" horiz-adv-x="218" 
d="M16 6l18 1q23 2 32.5 4t9.5 11v291q0 23 -1.5 37.5t-6 22.5t-12.5 12t-21 6l-23 4l1 4l133 35v-414q0 -6 8.5 -8.5t41.5 -4.5l14 -1l3 -6h-200z" />
    <glyph glyph-name="Lslash" unicode="&#x141;" horiz-adv-x="546" 
d="M11 252v12l100 33v305q0 5 -9.5 8t-48.5 6l-32 3l-3 6h284l-3 -6l-60 -4q-26 -2 -37 -6.5t-11 -9.5v-276l101 33l2 -12l-103 -33v-297l118 -5q45 0 74.5 13t50.5 35.5t36.5 54t31.5 69.5l6 13h7l-39 -194h-459l3 6l43 4q26 2 37 6.5t11 9.5v259z" />
    <glyph glyph-name="lslash" unicode="&#x142;" horiz-adv-x="209" 
d="M1 239l2 11l68 22v281q0 23 -1.5 37t-6 22.5t-12.5 12.5t-21 6l-22 4l1 5l132 33v-378l65 22l2 -11l-67 -22v-264q0 -6 8 -8.5t42 -4.5l14 -1l3 -6h-198l2 6l17 1q23 2 32.5 4t9.5 11v239z" />
    <glyph glyph-name="OE" unicode="&#x152;" horiz-adv-x="918" 
d="M462 13v586l-74 14q-70 -1 -121.5 -25t-85.5 -64t-51 -91.5t-17 -107.5q0 -64 16.5 -121t51.5 -99.5t89 -67.5t128 -25zM383 0q-87 -1 -153.5 21t-111.5 61.5t-68 95.5t-23 124q0 70 25.5 129t75 102t121 67t163.5 24l414 1l19 -178h-5l-6 14q-14 39 -29 68t-35 48.5
t-47.5 29t-66.5 9.5h-114v-284h66q34 2 56.5 5.5t37.5 12t25 24t17 39.5l5 14l6 -1l-20 -202l-6 1l-1 13q-2 27 -8 42.5t-20.5 24t-38 11.5t-60.5 4l-59 2v-307l130 -5q45 1 76.5 14t55 35.5t40 52.5t30.5 64l6 14l6 -1l-41 -189h-462v0z" />
    <glyph glyph-name="oe" unicode="&#x153;" horiz-adv-x="777" 
d="M674 299q0 25 -5 48t-15.5 41t-27 28.5t-39.5 10.5q-21 0 -40.5 -10.5t-36 -28.5t-28 -41.5t-17.5 -50.5zM244 -5q31 0 56.5 17t43.5 45.5t28 67t10 80.5q0 58 -13 107t-41 78q-17 17 -39 28t-48 11q-32 0 -58 -17t-44 -45.5t-27.5 -66.5t-9.5 -80q0 -60 14.5 -110
t42.5 -79q16 -17 37.5 -26.5t47.5 -9.5zM243 -13q-48 0 -89 17t-71 47t-47 70.5t-17 87.5t17 88.5t47 72.5t71 49t89 18q60 0 107 -26.5t74 -72.5q26 45 69.5 72t101.5 27q37 0 66 -10.5t49.5 -29.5t31 -43.5t10.5 -53.5q0 -4 -0.5 -6.5l-1.5 -7.5q-80 1 -142 1h-145
q-2 -11 -3 -27t-1 -27q0 -44 12 -80.5t33.5 -62t50 -39.5t61.5 -14q46 0 78.5 17.5t61.5 62.5l7 -3q-34 -59 -78 -93t-105 -34q-55 0 -93.5 27t-64.5 70q-29 -45 -75 -71t-104 -26z" />
    <glyph glyph-name="Scaron" unicode="&#x160;" horiz-adv-x="484" 
d="M234 -14q-44 0 -95 10.5t-92 24.5l-10 142h6l21 -49q26 -63 68.5 -90.5t102.5 -27.5q34 0 61.5 11t47.5 30.5t31 46t11 58.5q0 62 -41 97.5t-115 59.5q-33 11 -63 25t-52.5 34.5t-36 47.5t-13.5 63q0 34 13 64.5t37.5 54t59.5 37.5t78 14q37 0 67.5 -7t55.5 -16l40 12
l9 -153h-6l-66 120q-20 15 -43.5 25t-57.5 10q-28 0 -51 -9t-40 -24.5t-26.5 -37t-9.5 -47.5q0 -29 11 -50t30.5 -37t46 -28t57.5 -23q38 -13 71.5 -29.5t58 -39t39 -52.5t14.5 -71q0 -38 -16 -73.5t-45.5 -62.5t-69.5 -43.5t-88 -16.5zM119 854h4l130 -112h2l130 112h4
l-134 -187h-2z" />
    <glyph glyph-name="scaron" unicode="&#x161;" horiz-adv-x="347" 
d="M160 -13q-38 0 -68.5 6t-58.5 17l-11 118l6 1l21 -45q20 -42 50.5 -65t66.5 -23q45 0 71.5 25t26.5 63q0 41 -29 65t-82 41q-21 7 -41.5 17t-37 24t-27 34t-10.5 48q0 27 11 49.5t30 39t44.5 25.5t54.5 9q49 0 88 -18l32 11l5 -111l-6 -1l-51 82q-11 9 -28 18.5t-41 9.5
q-41 0 -62.5 -21t-21.5 -56q0 -19 7 -33t20.5 -24.5t32 -19t41.5 -16.5q25 -9 48.5 -19t41.5 -25t29 -36.5t11 -53.5q0 -27 -11.5 -52t-33 -43.5t-51.5 -29.5t-67 -11zM39 658h4l130 -112h2l130 112h4l-134 -187h-2z" />
    <glyph glyph-name="Ydieresis" unicode="&#x178;" horiz-adv-x="610" 
d="M167 6l50 4q26 2 37 6.5t11 9.5v255l-148 261q-11 20 -20 34t-19 22.5t-22 13t-29 5.5l-28 2l-3 6h264l-3 -6l-30 -1q-40 -2 -43.5 -16.5t18.5 -54.5l136 -241h2l94 178q20 39 29.5 63t7.5 38.5t-17.5 21.5t-44.5 10l-25 2l-3 6h220l-3 -6l-22 -2q-19 -1 -33 -5.5
t-28 -17.5t-29.5 -38t-37.5 -68l-103 -193v-272q0 -5 9.5 -8t48.5 -6l39 -3l3 -6h-281zM389 676q-24 0 -35 16t-11 29q0 7 2.5 15.5t8.5 16t14.5 12.5t20.5 5t20.5 -5t14.5 -12.5t8.5 -16t2.5 -15.5q0 -13 -11 -29t-35 -16zM229 676q-24 0 -35 16t-11 29q0 7 2.5 15.5
t8.5 16t14.5 12.5t20.5 5t20.5 -5t14.5 -12.5t8.5 -16t2.5 -15.5q0 -13 -11 -29t-35 -16z" />
    <glyph glyph-name="Zcaron" unicode="&#x17d;" horiz-adv-x="569" 
d="M33 3l397 610v3h-164q-47 0 -79.5 -12t-55.5 -33t-39 -50t-29 -64l-5 -12h-6l21 180h453v-4l-396 -608v-2l178 -2q52 0 87 12.5t59 36t40.5 56.5t31.5 75l6 14h8l-32 -203h-475v3zM154 839h4l130 -112h2l130 112h4l-134 -187h-2z" />
    <glyph glyph-name="zcaron" unicode="&#x17e;" horiz-adv-x="409" 
d="M19 5l269 408q-19 1 -36 1h-48q-34 0 -57 -7t-39 -21.5t-27.5 -36t-23.5 -51.5l-9 -20h-5l3 144h326v-5l-271 -407l93 -2q34 0 59.5 8t45.5 23t36 36t31 47l14 23h4l-33 -145h-332v5zM67 658h4l130 -112h2l130 112h4l-134 -187h-2z" />
    <glyph glyph-name="florin" unicode="&#x192;" horiz-adv-x="482" 
d="M72 -71q-36 0 -56.5 15.5t-20.5 38.5q0 18 12.5 31t31.5 13q12 0 22 -6.5t15 -17.5t3 -24.5t-14 -28.5q5 -2 13 -5.5t16 -3.5q18 0 32.5 11t28.5 44t29.5 93t34.5 157l24 124l-107 2l12 30l105 2q17 66 39 113.5t51 76.5q24 24 51.5 35t57.5 11q36 0 59 -16t23 -41
q0 -20 -14.5 -32.5t-30.5 -12.5q-14 0 -24.5 7.5t-14 18.5t1 25.5t19.5 27.5q-5 3 -11 7q-12 7 -26 7q-21 0 -37 -13.5t-28.5 -42t-23 -71t-22.5 -101.5l123 -1l-5 -32h-125l-29 -126q-25 -110 -54 -175.5t-65 -101.5q-22 -23 -47.5 -30.5t-48.5 -7.5z" />
    <glyph glyph-name="circumflex" unicode="&#x2c6;" 
d="M184 667h2l134 -187h-4l-130 112h-2l-130 -112h-4z" />
    <glyph glyph-name="caron" unicode="&#x2c7;" 
d="M50 667h4l130 -112h2l130 112h4l-134 -187h-2z" />
    <glyph glyph-name="breve" unicode="&#x2d8;" 
d="M185 486q-30 0 -50 14.5t-33.5 38t-22 52.5t-15.5 58h5q21 -54 48.5 -84.5t69.5 -30.5q41 0 69.5 30.5t48.5 84.5h5q-7 -29 -15.5 -58t-22.5 -52.5t-34.5 -38t-52.5 -14.5z" />
    <glyph glyph-name="dotaccent" unicode="&#x2d9;" 
d="M185 525q-24 0 -35 16t-11 29q0 14 11 31t35 17t35 -17t11 -31q0 -13 -11 -29t-35 -16z" />
    <glyph glyph-name="ring" unicode="&#x2da;" 
d="M185 507q37 0 58 24t21 57q0 32 -21 56.5t-58 24.5t-58 -24.5t-21 -56.5q0 -33 21 -57t58 -24zM185 498q-42 0 -65.5 26.5t-23.5 63.5q0 36 23.5 63t65.5 27t65.5 -27t23.5 -63q0 -37 -23.5 -63.5t-65.5 -26.5z" />
    <glyph glyph-name="ogonek" unicode="&#x2db;" 
d="M178 -227q-18 0 -34.5 6.5t-28.5 18t-19 27t-7 33.5q0 30 16.5 55t40 45.5t50 35t45.5 22.5h14q-57 -28 -87 -62.5t-30 -76.5q0 -34 19.5 -53.5t49.5 -19.5q23 0 39.5 11.5t28.5 24.5l4 -3q-16 -23 -41 -43.5t-60 -20.5z" />
    <glyph glyph-name="tilde" unicode="&#x2dc;" 
d="M259 497q-19 0 -41.5 9.5t-45 20.5t-42.5 20.5t-35 9.5q-18 0 -30.5 -8.5t-15.5 -43.5h-5q5 52 20.5 75t47.5 23q19 0 41.5 -9t44.5 -20.5t42.5 -20.5t35.5 -9q17 0 30 9.5t16 41.5h5q-5 -51 -20.5 -74.5t-47.5 -23.5z" />
    <glyph glyph-name="hungarumlaut" unicode="&#x2dd;" 
d="M319 678h73l-171 -187h-7zM177 678h73l-172 -187h-7z" />
    <glyph glyph-name="pi" unicode="&#x3c0;" horiz-adv-x="704" 
d="M374 302q45 0 68.5 24t23.5 69q0 44 -23 68t-79 24h-42v-178q9 -2 20.5 -4.5t31.5 -2.5zM214 125l30 3q29 3 29 10v339q0 4 -5.5 5.5t-29.5 3.5l-23 2l-2 6h167q69 0 102.5 -25.5t33.5 -68.5q0 -23 -11 -42t-30 -33t-45 -22t-56 -8q-14 0 -28.5 1.5t-23.5 3.5v-164
q0 -3 5.5 -5t28.5 -4l30 -2l2 -6h-175zM352 -5q66 0 123.5 25t100.5 68.5t68 101t25 123.5t-25 124t-68 101.5t-100.5 68.5t-123.5 25t-123.5 -25t-100.5 -68.5t-68 -101.5t-25 -124t25 -123.5t68 -101t100.5 -68.5t123.5 -25zM352 -14q-68 0 -127.5 25.5t-104 70t-70 104
t-25.5 127.5t25.5 127.5t70 104t104 70.5t127.5 26t127.5 -26t104 -70.5t70 -104t25.5 -127.5t-25.5 -127.5t-70 -104t-104 -70t-127.5 -25.5z" />
    <glyph glyph-name="endash" unicode="&#x2013;" horiz-adv-x="425" 
d="M7 254h414l-3 -30h-414z" />
    <glyph glyph-name="emdash" unicode="&#x2014;" horiz-adv-x="896" 
d="M7 254h885l-3 -30h-885z" />
    <glyph glyph-name="quoteleft" unicode="&#x2018;" horiz-adv-x="167" 
d="M94 428q-30 0 -51 20.5t-21 58.5q0 21 9 41.5t25 39t38 34t48 25.5l4 -4q-13 -8 -27 -18.5t-25.5 -23.5t-18.5 -29t-7 -35q0 -20 9 -31.5t21.5 -17t25.5 -6t21 0.5q3 -8 1 -17.5t-8.5 -18t-17.5 -14t-26 -5.5z" />
    <glyph glyph-name="quoteright" unicode="&#x2019;" horiz-adv-x="166" 
d="M20 431q14 8 27.5 18t25 23t18.5 28.5t7 34.5q0 20 -9 31.5t-21.5 17t-25.5 6.5t-21 0q-2 8 0 17.5t8.5 18t17 14.5t25.5 6q31 0 51.5 -22t20.5 -60q0 -21 -9 -41t-25 -38.5t-38 -33.5t-48 -25z" />
    <glyph glyph-name="quotesinglbase" unicode="&#x201a;" horiz-adv-x="166" 
d="M20 -104q14 8 27.5 18t25 23t18.5 28.5t7 35.5t-9 31.5t-21.5 17t-25.5 6.5t-21 0q-2 8 0 17.5t8.5 18t17 14.5t25.5 6q31 0 51.5 -22t20.5 -60q0 -42 -34 -80.5t-86 -58.5z" />
    <glyph glyph-name="quotedblleft" unicode="&#x201c;" horiz-adv-x="322" 
d="M94 428q-30 0 -51 20.5t-21 58.5q0 21 9 41.5t25 39t38 34t48 25.5l4 -4q-13 -8 -27 -18.5t-25.5 -23.5t-18.5 -29t-7 -35q0 -20 9 -31.5t21.5 -17t25.5 -6t21 0.5q3 -8 1 -17.5t-8.5 -18t-17.5 -14t-26 -5.5zM249 428q-30 0 -51 20.5t-21 58.5q0 21 9 41.5t25 39t38 34
t48 25.5l4 -4q-13 -8 -27 -18.5t-25.5 -23.5t-18.5 -29t-7 -35q0 -20 9 -31.5t21.5 -17t25.5 -6t21 0.5q3 -8 1 -17.5t-8.5 -18t-17.5 -14t-26 -5.5z" />
    <glyph glyph-name="quotedblright" unicode="&#x201d;" horiz-adv-x="321" 
d="M175 431q14 8 27.5 18t25 23t18.5 28.5t7 34.5q0 20 -9 31.5t-21 17t-25 6.5t-21 0q-3 8 -1 17.5t8.5 18t17 14.5t25.5 6q31 0 51.5 -22t20.5 -60q0 -21 -9 -41t-25 -38.5t-38 -33.5t-48 -25zM20 431q14 8 27.5 18t25 23t18.5 28.5t7 34.5q0 20 -9 31.5t-21.5 17
t-25.5 6.5t-21 0q-2 8 0 17.5t8.5 18t17 14.5t25.5 6q31 0 51.5 -22t20.5 -60q0 -21 -9 -41t-25 -38.5t-38 -33.5t-48 -25z" />
    <glyph glyph-name="quotedblbase" unicode="&#x201e;" horiz-adv-x="321" 
d="M175 -104q14 8 27.5 18t25 23t18.5 28.5t7 35.5t-9 31.5t-21 17t-25 6.5t-21 0q-3 8 -1 17.5t8.5 18t17 14.5t25.5 6q31 0 51.5 -22t20.5 -60q0 -42 -34 -80.5t-86 -58.5zM20 -104q14 8 27.5 18t25 23t18.5 28.5t7 35.5t-9 31.5t-21.5 17t-25.5 6.5t-21 0q-2 8 0 17.5
t8.5 18t17 14.5t25.5 6q31 0 51.5 -22t20.5 -60q0 -42 -34 -80.5t-86 -58.5z" />
    <glyph glyph-name="dagger" unicode="&#x2020;" horiz-adv-x="433" 
d="M211 414h-202l-1 10h203v201h11v-201h203l-1 -10h-202v-570h-11v570z" />
    <glyph glyph-name="daggerdbl" unicode="&#x2021;" horiz-adv-x="433" 
d="M211 36h-203l1 10h202v376h-202l-1 10h203v193h11v-193h203l-1 -10h-202v-376h202l1 -10h-203v-192h-11v192z" />
    <glyph glyph-name="bullet" unicode="&#x2022;" horiz-adv-x="425" 
d="M212 39q-10 0 -30 6t-41 14.5t-39 18.5t-25 18t-17 26t-19 39t-15 40.5t-6 30.5t6 30.5t15 40.5t19 39.5t17 25.5q8 8 26 17.5t39 18t41 14.5t30 6q11 0 30.5 -6t40.5 -14.5t39.5 -18t25.5 -17.5q8 -7 17.5 -25.5t18 -39.5t14.5 -40.5t6 -30.5t-6 -30.5t-14.5 -40.5
t-18 -39t-17.5 -26q-7 -8 -25.5 -18t-39.5 -18.5t-41 -14.5t-31 -6z" />
    <glyph glyph-name="ellipsis" unicode="&#x2026;" horiz-adv-x="554" 
d="M278 -12q-23 0 -38.5 15.5t-15.5 36.5q0 20 15.5 35.5t38.5 15.5t37.5 -15.5t14.5 -35.5q0 -21 -14.5 -36.5t-37.5 -15.5zM88 -12q-23 0 -38.5 15.5t-15.5 36.5q0 20 15.5 35.5t38.5 15.5t37.5 -15.5t14.5 -35.5q0 -21 -14.5 -36.5t-37.5 -15.5zM467 -12q-23 0 -38 15.5
t-15 36.5q0 20 15 35.5t38 15.5t37.5 -15.5t14.5 -35.5q0 -21 -14.5 -36.5t-37.5 -15.5z" />
    <glyph glyph-name="perthousand" unicode="&#x2030;" horiz-adv-x="817" 
d="M132 395q52 0 82.5 34t30.5 83q0 24 -8 45.5t-22.5 38t-35.5 26t-47 9.5t-46.5 -9.5t-35 -26t-22.5 -38t-8 -45.5q0 -49 30 -83t82 -34zM132 386q-29 0 -52 10t-39 27.5t-24.5 40.5t-8.5 48q0 26 8.5 49t24.5 40.5t39 28t52 10.5t52.5 -10.5t39.5 -28t24.5 -40.5t8.5 -49
q0 -25 -8.5 -48t-24.5 -40.5t-39.5 -27.5t-52.5 -10zM396 -4q52 0 82.5 33.5t30.5 82.5q0 24 -8 46t-22.5 38.5t-35.5 26t-47 9.5t-46.5 -9.5t-35 -26t-22.5 -38.5t-8 -46q0 -49 30 -82.5t82 -33.5zM396 -13q-29 0 -52 10t-39 27.5t-24.5 40t-8.5 47.5q0 26 8.5 49.5
t24.5 41t39 28t52 10.5t52.5 -10.5t39.5 -28t24.5 -41t8.5 -49.5q0 -25 -8.5 -47.5t-24.5 -40t-39.5 -27.5t-52.5 -10zM684 -4q52 0 82.5 33.5t30.5 82.5q0 24 -8 46t-22.5 38.5t-35.5 26t-47 9.5t-46.5 -9.5t-35 -26t-22.5 -38.5t-8 -46q0 -49 30 -82.5t82 -33.5zM684 -13
q-29 0 -52 10t-39 27.5t-24.5 40t-8.5 47.5q0 26 8.5 49.5t24.5 41t39 28t52 10.5t52.5 -10.5t39.5 -28t24.5 -41t8.5 -49.5q0 -25 -8.5 -47.5t-24.5 -40t-39.5 -27.5t-52.5 -10zM471 640h12l-428 -654h-12z" />
    <glyph glyph-name="guilsinglleft" unicode="&#x2039;" horiz-adv-x="233" 
d="M11 219v6l202 171l3 -3l-128 -171l128 -171l-3 -3z" />
    <glyph glyph-name="guilsinglright" unicode="&#x203a;" horiz-adv-x="233" 
d="M17 51l128 171l-127 171l3 3l201 -171v-6l-202 -171z" />
    <glyph glyph-name="fraction" unicode="&#x2044;" horiz-adv-x="459" 
d="M457 641h14l-469 -654h-14z" />
    <glyph glyph-name="Euro" unicode="&#x20ac;" horiz-adv-x="478" 
d="M289 -14q-41 0 -78.5 16.5t-68 47.5t-51.5 75t-29 98h-63l3 10h58q-3 33 -3 60q0 15 1 30.5t3 29.5h-62l3 10h61q10 62 35.5 112.5t61 86t78.5 54.5t89 19q61 0 98 -22.5t37 -59.5q0 -19 -14 -32t-32 -13q-19 0 -29.5 9.5t-13.5 23t0.5 27.5t13.5 22q-6 11 -22 23t-45 12
q-35 0 -67 -20t-56.5 -55t-41.5 -83t-22 -104h199l3 -10h-203q0 -9 -0.5 -19t-0.5 -20q0 -39 6 -81h195l3 -10h-195q8 -43 25.5 -78t41 -60t52.5 -38t61 -13q49 0 85 22t63 70l7 -5q-33 -59 -77 -97t-109 -38z" />
    <glyph glyph-name="trademark" unicode="&#x2122;" horiz-adv-x="404" 
d="M188 471h5q12 0 15.5 3t3.5 15l3 123q-4 6 -8 7t-9 2l-7 1l-1 3h54l43 -116h1l44 116h56l-1 -3l-12 -1q-11 -1 -11 -4l3 -142q0 -2 2 -1.5t12 -1.5l7 -1l1 -3h-76v3l12 1q10 1 10 4l-2 137h-1l-56 -145h-3l-54 139l-1 1l-2 -121q0 -11 4.5 -13.5t18.5 -2.5h5l1 -3h-58z
M59 471l11 1q12 1 12 4v146h-12q-17 -1 -27.5 -13.5t-18.5 -26.5l-2 -3h-2l8 46h140l5 -46h-1l-2 4q-8 17 -18.5 28t-26.5 11h-12v-147q0 -2 2 -1.5t12 -1.5l8 -1v-3h-77z" />
    <glyph glyph-name="Omega" unicode="&#x2126;" horiz-adv-x="530" 
d="M23 6l18 1q23 2 32.5 4t9.5 11v364l-73 1l14 35h58l2 15q7 57 26 98t46.5 67t61 38.5t69.5 12.5q40 0 59.5 -15t19.5 -38q0 -15 -11.5 -27.5t-30.5 -12.5q-12 0 -22.5 6t-18 15.5t-11 22t-1.5 25.5l-30 10q-51 -14 -69.5 -59.5t-18.5 -120.5v-37h184l1 24q5 56 23 97
t44 67.5t57 39t61 12.5q31 0 46 -13.5t15 -31.5q0 -15 -12.5 -27t-29.5 -12q-20 0 -37 16t-21 39l-1 7l-14 2q-38 -17 -50 -61t-12 -113v-46h110l-14 -36h-96v-366q0 -6 7 -9t40 -4l33 -1l3 -6h-215l3 6l18 1q23 2 32 4t9 11v365h-184v-367q0 -3 1 -5.5t5.5 -4t13.5 -2.5
t26 -1l32 -1l3 -6h-214z" />
    <glyph glyph-name="Delta" unicode="&#x2206;" horiz-adv-x="444" 
d="M154 -11q-39 0 -64.5 8t-41 20t-22 26.5t-6.5 27.5q0 21 14 36.5t37 15.5q22 0 35 -14.5t13 -31.5q0 -11 -7.5 -26t-35.5 -20q12 -17 32.5 -25t46.5 -8q55 0 78 33.5t23 116.5v455q0 5 -9.5 8.5t-48.5 5.5l-39 3l-3 6h281l-3 -6l-50 -4q-26 -2 -37 -6.5t-11 -9.5v-475
q0 -18 -14.5 -41.5t-39.5 -44.5t-58 -35.5t-70 -14.5z" />
    <glyph glyph-name="radical" unicode="&#x221a;" horiz-adv-x="735" 
d="M661 673v-653q0 -6 8.5 -8.5t42.5 -4.5l14 -1l3 -6h-199l3 6l17 1q23 2 32.5 4t9.5 11v365h-185v-367q0 -6 6.5 -9t39.5 -4l33 -1l2 -6h-213l3 6l18 1q23 2 32 4t9 11v365h-184v-367q0 -3 1 -5.5t5.5 -4t13.5 -2.5t26 -1l32 -1l3 -6h-214l3 6l18 1q23 2 32.5 4t9.5 11
v364l-73 1l14 35h58l2 15q7 57 26 98t46.5 67t61 38.5t69.5 12.5q40 0 59.5 -15t19.5 -38q0 -15 -11.5 -27.5t-30.5 -12.5q-24 0 -40.5 21t-12.5 48l-30 10q-51 -14 -69.5 -59.5t-18.5 -120.5v-37h184l1 25q5 56 24.5 97t48 67.5t63.5 39t71 12.5q37 0 60 -14zM592 567h-4
q-28 0 -44.5 21t-13.5 50l-32 10q-51 -14 -71 -59.5t-20 -120.5v-46h185v145z" />
    <glyph glyph-name="approxequal" unicode="&#x2248;" horiz-adv-x="735" 
d="M23 6l18 1q23 2 32.5 4t9.5 11v364l-73 1l14 35h58l2 15q7 57 26 98t46.5 67t61 38.5t69.5 12.5q40 0 59.5 -15t19.5 -38q0 -15 -11.5 -27.5t-30.5 -12.5q-12 0 -22.5 6t-18 16t-11 22t-1.5 25l-30 10q-51 -14 -69.5 -59.5t-18.5 -120.5v-37h184l1 25q5 56 24.5 97
t48.5 67.5t64 39t71 12.5q38 0 60 -16t22 -43q0 -16 -12.5 -28t-29.5 -12q-28 0 -44.5 22.5t-12.5 52.5l-30 9q-51 -14 -71.5 -59.5t-20.5 -120.5v-46h184l70 11v-413q0 -6 8.5 -8.5t42.5 -4.5l14 -1l3 -6h-199l3 6l18 1q23 2 32 4.5t9 11.5v364h-185v-367q0 -6 6.5 -9
t39.5 -4l33 -1l2 -6h-213l3 6l18 1q23 2 32 4t9 11v365h-184v-367q0 -3 1 -5.5t5.5 -4t13.5 -2.5t26 -1l32 -1l3 -6h-214z" />
    <glyph glyph-name="apple" unicode="&#xf8ff;" horiz-adv-x="758" 
d="M442 169l192 -104l-103 193l206 63l-206 61l103 192l-192 -103l-62 207l-64 -207l-191 103l103 -192l-208 -62l208 -64l-103 -191l191 104l62 -208zM294 115l-187 -68l68 187l-181 86l181 83l-68 189l187 -69l86 181l83 -181l189 69l-69 -189l180 -82l-180 -85l69 -189
l-189 69l-85 -181z" />
    <glyph glyph-name="fi" unicode="&#xfb01;" horiz-adv-x="483" 
d="M23 6l18 1q23 2 32.5 4t9.5 11v364l-73 1l14 35h58l2 25q5 56 24.5 97t48 67.5t63.5 39t71 12.5q38 0 60 -16t22 -43q0 -16 -12 -28t-30 -12q-27 0 -43.5 22.5t-12.5 52.5l-31 9q-51 -14 -71 -59.5t-20 -120.5v-46h184l70 11v-413q0 -6 8.5 -8.5t42.5 -4.5l14 -1l2 -6
h-199l3 6l18 1q23 2 32 4t9 11v365h-184v-367q0 -3 1 -5.5t5.5 -4t13.5 -2.5t26 -1l32 -1l3 -6h-214z" />
    <glyph glyph-name="fl" unicode="&#xfb02;" horiz-adv-x="480" 
d="M348 648q1 0 10 4t20 9q13 5 29 12v-653q0 -6 8.5 -8.5t42.5 -4.5l14 -1l2 -6h-199l3 6l17 1q23 2 32.5 4t9.5 11v365h-184v-367q0 -3 1 -5.5t5.5 -4t13.5 -2.5t26 -1l32 -1l3 -6h-214l3 6l18 1q23 2 32.5 4t9.5 11v364l-73 1l14 35h58l2 25q5 56 24.5 97t48 67.5t63 39
t70.5 12.5q39 0 58 -15zM337 568q-3 -1 -8 -1q-27 0 -44.5 21t-13.5 50l-28 10q-51 -14 -70.5 -59.5t-19.5 -120.5v-46h184v146z" />
    </font>
</defs>
</svg>
